<svg width="26" height="3" viewBox="0 0 26 3" fill="none" xmlns="http://www.w3.org/2000/svg">
<path d="M1.27077 2.07955C1.02551 2.07955 0.815045 1.99171 0.639382 1.81605C0.463719 1.64039 0.375888 1.42992 0.375888 1.18466C0.375888 0.939394 0.463719 0.72893 0.639382 0.553267C0.815045 0.377604 1.02551 0.289773 1.27077 0.289773C1.51604 0.289773 1.7265 0.377604 1.90217 0.553267C2.07783 0.72893 2.16566 0.939394 2.16566 1.18466C2.16566 1.34706 2.12423 1.49621 2.04137 1.6321C1.96183 1.76799 1.85411 1.87737 1.71822 1.96023C1.58564 2.03977 1.43649 2.07955 1.27077 2.07955ZM13.0012 2.07955C12.756 2.07955 12.5455 1.99171 12.3699 1.81605C12.1942 1.64039 12.1064 1.42992 12.1064 1.18466C12.1064 0.939394 12.1942 0.72893 12.3699 0.553267C12.5455 0.377604 12.756 0.289773 13.0012 0.289773C13.2465 0.289773 13.457 0.377604 13.6326 0.553267C13.8083 0.72893 13.8961 0.939394 13.8961 1.18466C13.8961 1.34706 13.8547 1.49621 13.7718 1.6321C13.6923 1.76799 13.5846 1.87737 13.4487 1.96023C13.3161 2.03977 13.167 2.07955 13.0012 2.07955ZM24.7317 2.07955C24.4864 2.07955 24.276 1.99171 24.1003 1.81605C23.9247 1.64039 23.8368 1.42992 23.8368 1.18466C23.8368 0.939394 23.9247 0.72893 24.1003 0.553267C24.276 0.377604 24.4864 0.289773 24.7317 0.289773C24.977 0.289773 25.1874 0.377604 25.3631 0.553267C25.5388 0.72893 25.6266 0.939394 25.6266 1.18466C25.6266 1.34706 25.5852 1.49621 25.5023 1.6321C25.4228 1.76799 25.315 1.87737 25.1792 1.96023C25.0466 2.03977 24.8974 2.07955 24.7317 2.07955Z" fill="#90AF92"/>
<path d="M0.639382 1.81605L1.70004 0.755391L0.639382 1.81605ZM1.90217 0.553267L2.96283 -0.507393L2.96283 -0.507394L1.90217 0.553267ZM2.04137 1.6321L0.760677 0.851191L0.753659 0.8627L0.746849 0.874334L2.04137 1.6321ZM1.71822 1.96023L2.48998 3.2465L2.49913 3.24092L1.71822 1.96023ZM1.27077 0.579545C1.33134 0.579545 1.41542 0.591299 1.50667 0.629379C1.59754 0.6673 1.66196 0.717314 1.70004 0.755391L-0.421278 2.87671C0.0316185 3.32961 0.621964 3.57955 1.27077 3.57955V0.579545ZM1.70004 0.755391C1.73812 0.793468 1.78813 0.857891 1.82605 0.948759C1.86413 1.04001 1.87589 1.12409 1.87589 1.18466H-1.12411C-1.12411 1.83347 -0.874174 2.42381 -0.421278 2.87671L1.70004 0.755391ZM1.87589 1.18466C1.87589 1.24522 1.86413 1.32931 1.82605 1.42056C1.78813 1.51143 1.73812 1.57585 1.70004 1.61393L-0.421278 -0.507393C-0.874174 -0.0544968 -1.12411 0.535849 -1.12411 1.18466H1.87589ZM1.70004 1.61393C1.66196 1.652 1.59754 1.70202 1.50667 1.73994C1.41542 1.77802 1.33134 1.78977 1.27077 1.78977V-1.21023C0.621964 -1.21023 0.0316185 -0.96029 -0.421278 -0.507393L1.70004 1.61393ZM1.27077 1.78977C1.21021 1.78977 1.12612 1.77802 1.03487 1.73994C0.944006 1.70202 0.879584 1.65201 0.841506 1.61393L2.96283 -0.507394C2.50993 -0.96029 1.91958 -1.21023 1.27077 -1.21023V1.78977ZM0.841506 1.61393C0.803428 1.57585 0.753415 1.51143 0.715494 1.42056C0.677414 1.32931 0.665661 1.24522 0.665661 1.18466H3.66566C3.66566 0.535849 3.41572 -0.0544968 2.96283 -0.507393L0.841506 1.61393ZM0.665661 1.18466C0.665661 1.13686 0.671966 1.0793 0.689311 1.01686C0.706711 0.954218 0.732036 0.898161 0.760677 0.851191L3.32206 2.41301C3.5514 2.0369 3.66566 1.61665 3.66566 1.18466H0.665661ZM0.746849 0.874334C0.768221 0.837824 0.796649 0.799614 0.832197 0.763518C0.867691 0.727479 0.904197 0.699721 0.937306 0.679533L2.49913 3.24092C2.84444 3.03036 3.12962 2.74226 3.33589 2.38987L0.746849 0.874334ZM0.946474 0.673987C1.00016 0.641779 1.05938 0.616644 1.12043 0.600364C1.18084 0.584254 1.2327 0.579545 1.27077 0.579545V3.57955C1.68808 3.57955 2.10746 3.47597 2.48996 3.24647L0.946474 0.673987ZM12.3699 1.81605L13.4305 0.755391L12.3699 1.81605ZM13.6326 0.553267L14.6933 -0.507393V-0.507394L13.6326 0.553267ZM13.7718 1.6321L12.4911 0.851191L12.4841 0.8627L12.4773 0.874334L13.7718 1.6321ZM13.4487 1.96023L14.2204 3.2465L14.2296 3.24092L13.4487 1.96023ZM13.0012 0.579545C13.0618 0.579545 13.1459 0.591299 13.2371 0.629379C13.328 0.6673 13.3924 0.717314 13.4305 0.755391L11.3092 2.87671C11.7621 3.32961 12.3524 3.57955 13.0012 3.57955V0.579545ZM13.4305 0.755391C13.4686 0.793468 13.5186 0.857891 13.5565 0.948759C13.5946 1.04001 13.6064 1.12409 13.6064 1.18466H10.6064C10.6064 1.83347 10.8563 2.42381 11.3092 2.87671L13.4305 0.755391ZM13.6064 1.18466C13.6064 1.24522 13.5946 1.32931 13.5565 1.42056C13.5186 1.51143 13.4686 1.57585 13.4305 1.61393L11.3092 -0.507393C10.8563 -0.0544968 10.6064 0.535849 10.6064 1.18466H13.6064ZM13.4305 1.61393C13.3924 1.652 13.328 1.70202 13.2371 1.73994C13.1459 1.77802 13.0618 1.78977 13.0012 1.78977V-1.21023C12.3524 -1.21023 11.7621 -0.96029 11.3092 -0.507393L13.4305 1.61393ZM13.0012 1.78977C12.9407 1.78977 12.8566 1.77802 12.7653 1.73994C12.6745 1.70202 12.6101 1.65201 12.572 1.61393L14.6933 -0.507394C14.2404 -0.96029 13.6501 -1.21023 13.0012 -1.21023V1.78977ZM12.572 1.61393C12.5339 1.57585 12.4839 1.51143 12.446 1.42056C12.4079 1.32931 12.3961 1.24522 12.3961 1.18466H15.3961C15.3961 0.535849 15.1462 -0.0544968 14.6933 -0.507393L12.572 1.61393ZM12.3961 1.18466C12.3961 1.13686 12.4024 1.0793 12.4198 1.01686C12.4372 0.954218 12.4625 0.898161 12.4911 0.851191L15.0525 2.41301C15.2819 2.0369 15.3961 1.61665 15.3961 1.18466H12.3961ZM12.4773 0.874334C12.4987 0.837824 12.5271 0.799614 12.5627 0.763518C12.5982 0.727479 12.6347 0.699721 12.6678 0.679533L14.2296 3.24092C14.5749 3.03036 14.8601 2.74226 15.0664 2.38987L12.4773 0.874334ZM12.6769 0.673987C12.7306 0.641779 12.7898 0.616644 12.8509 0.600364C12.9113 0.584254 12.9632 0.579545 13.0012 0.579545V3.57955C13.4185 3.57955 13.8379 3.47597 14.2204 3.24647L12.6769 0.673987ZM24.1003 1.81605L25.161 0.755391L24.1003 1.81605ZM25.3631 0.553267L26.4238 -0.507393V-0.507394L25.3631 0.553267ZM25.5023 1.6321L24.2216 0.851191L24.2146 0.8627L24.2078 0.874334L25.5023 1.6321ZM25.1792 1.96023L25.9509 3.2465L25.9601 3.24092L25.1792 1.96023ZM24.7317 0.579545C24.7923 0.579545 24.8764 0.591299 24.9676 0.629379C25.0585 0.6673 25.1229 0.717314 25.161 0.755391L23.0397 2.87671C23.4926 3.32961 24.0829 3.57955 24.7317 3.57955V0.579545ZM25.161 0.755391C25.1991 0.793468 25.2491 0.857891 25.287 0.948759C25.3251 1.04001 25.3368 1.12409 25.3368 1.18466H22.3368C22.3368 1.83347 22.5868 2.42381 23.0397 2.87671L25.161 0.755391ZM25.3368 1.18466C25.3368 1.24522 25.3251 1.32931 25.287 1.42056C25.2491 1.51143 25.1991 1.57585 25.161 1.61393L23.0397 -0.507393C22.5868 -0.0544968 22.3368 0.535849 22.3368 1.18466H25.3368ZM25.161 1.61393C25.1229 1.652 25.0585 1.70202 24.9676 1.73994C24.8764 1.77802 24.7923 1.78977 24.7317 1.78977V-1.21023C24.0829 -1.21023 23.4926 -0.96029 23.0397 -0.507393L25.161 1.61393ZM24.7317 1.78977C24.6711 1.78977 24.5871 1.77802 24.4958 1.73994C24.4049 1.70202 24.3405 1.65201 24.3024 1.61393L26.4238 -0.507394C25.9709 -0.96029 25.3805 -1.21023 24.7317 -1.21023V1.78977ZM24.3024 1.61393C24.2644 1.57585 24.2144 1.51143 24.1764 1.42056C24.1384 1.32931 24.1266 1.24522 24.1266 1.18466H27.1266C27.1266 0.535849 26.8767 -0.0544968 26.4238 -0.507393L24.3024 1.61393ZM24.1266 1.18466C24.1266 1.13686 24.1329 1.0793 24.1502 1.01686C24.1676 0.954218 24.193 0.898161 24.2216 0.851191L26.783 2.41301C27.0123 2.0369 27.1266 1.61665 27.1266 1.18466H24.1266ZM24.2078 0.874334C24.2292 0.837824 24.2576 0.799614 24.2931 0.763518C24.3286 0.727479 24.3651 0.699721 24.3982 0.679533L25.9601 3.24092C26.3054 3.03036 26.5906 2.74226 26.7968 2.38987L24.2078 0.874334ZM24.4074 0.673987C24.4611 0.641779 24.5203 0.616644 24.5814 0.600364C24.6418 0.584254 24.6936 0.579545 24.7317 0.579545V3.57955C25.149 3.57955 25.5684 3.47597 25.9509 3.24647L24.4074 0.673987Z" fill="#90AF92"/>
</svg>
