<svg width="18" height="16" viewBox="0 0 18 16" fill="none" xmlns="http://www.w3.org/2000/svg">
<g clip-path="url(#clip0_303_184)">
<path d="M8.25 12H9.75C10.1625 12 10.5 11.7 10.5 11.3333C10.5 10.9667 10.1625 10.6667 9.75 10.6667H8.25C7.8375 10.6667 7.5 10.9667 7.5 11.3333C7.5 11.7 7.8375 12 8.25 12ZM2.25 4.66667C2.25 5.03333 2.5875 5.33333 3 5.33333H15C15.4125 5.33333 15.75 5.03333 15.75 4.66667C15.75 4.3 15.4125 4 15 4H3C2.5875 4 2.25 4.3 2.25 4.66667ZM5.25 8.66667H12.75C13.1625 8.66667 13.5 8.36667 13.5 8C13.5 7.63333 13.1625 7.33333 12.75 7.33333H5.25C4.8375 7.33333 4.5 7.63333 4.5 8C4.5 8.36667 4.8375 8.66667 5.25 8.66667Z" fill="#5A5A5A" stroke="#5A5A5A"/>
</g>
<defs>
<clipPath id="clip0_303_184">
<rect width="18" height="16" fill="white"/>
</clipPath>
</defs>
</svg>
