<svg width="134" height="40" viewBox="0 0 134 40" fill="none" xmlns="http://www.w3.org/2000/svg">
<rect width="134" height="40" rx="10" fill="#90AF92"/>
<mask id="path-2-outside-1_168_1102" maskUnits="userSpaceOnUse" x="45" y="13" width="72" height="16" fill="black">
<rect fill="white" x="45" y="13" width="72" height="16"/>
<path d="M55.0994 17.5H53.7784C53.7003 17.12 53.5636 16.7862 53.3683 16.4986C53.1765 16.2109 52.9421 15.9695 52.6651 15.7741C52.3917 15.5753 52.0881 15.4261 51.7543 15.3267C51.4205 15.2273 51.0724 15.1776 50.7102 15.1776C50.0497 15.1776 49.4513 15.3445 48.9151 15.6783C48.3825 16.0121 47.9581 16.5039 47.642 17.1538C47.3295 17.8036 47.1733 18.6009 47.1733 19.5455C47.1733 20.4901 47.3295 21.2873 47.642 21.9371C47.9581 22.587 48.3825 23.0788 48.9151 23.4126C49.4513 23.7464 50.0497 23.9134 50.7102 23.9134C51.0724 23.9134 51.4205 23.8636 51.7543 23.7642C52.0881 23.6648 52.3917 23.5174 52.6651 23.3221C52.9421 23.1232 53.1765 22.88 53.3683 22.5923C53.5636 22.3011 53.7003 21.9673 53.7784 21.5909H55.0994C55 22.1484 54.8189 22.6474 54.5561 23.0877C54.2933 23.5281 53.9666 23.9027 53.576 24.2116C53.1854 24.517 52.7468 24.7496 52.2603 24.9094C51.7773 25.0692 51.2607 25.1491 50.7102 25.1491C49.7798 25.1491 48.9524 24.9219 48.228 24.4673C47.5036 24.0128 46.9336 23.3665 46.5181 22.5284C46.1026 21.6903 45.8949 20.696 45.8949 19.5455C45.8949 18.3949 46.1026 17.4006 46.5181 16.5625C46.9336 15.7244 47.5036 15.0781 48.228 14.6236C48.9524 14.169 49.7798 13.9418 50.7102 13.9418C51.2607 13.9418 51.7773 14.0217 52.2603 14.1815C52.7468 14.3413 53.1854 14.5756 53.576 14.8846C53.9666 15.19 54.2933 15.5629 54.5561 16.0032C54.8189 16.44 55 16.9389 55.0994 17.5ZM60.3875 25.1705C59.6489 25.1705 59.0008 24.9947 58.4433 24.6431C57.8893 24.2915 57.4561 23.7997 57.1436 23.1676C56.8346 22.5355 56.6801 21.7969 56.6801 20.9517C56.6801 20.0994 56.8346 19.3555 57.1436 18.7198C57.4561 18.0842 57.8893 17.5906 58.4433 17.239C59.0008 16.8874 59.6489 16.7116 60.3875 16.7116C61.1262 16.7116 61.7725 16.8874 62.3264 17.239C62.884 17.5906 63.3172 18.0842 63.6262 18.7198C63.9387 19.3555 64.0949 20.0994 64.0949 20.9517C64.0949 21.7969 63.9387 22.5355 63.6262 23.1676C63.3172 23.7997 62.884 24.2915 62.3264 24.6431C61.7725 24.9947 61.1262 25.1705 60.3875 25.1705ZM60.3875 24.0412C60.9486 24.0412 61.4102 23.8974 61.7725 23.6097C62.1347 23.3221 62.4028 22.9439 62.5768 22.4751C62.7508 22.0064 62.8378 21.4986 62.8378 20.9517C62.8378 20.4048 62.7508 19.8952 62.5768 19.4229C62.4028 18.9506 62.1347 18.5689 61.7725 18.2777C61.4102 17.9865 60.9486 17.8409 60.3875 17.8409C59.8264 17.8409 59.3648 17.9865 59.0026 18.2777C58.6404 18.5689 58.3722 18.9506 58.1982 19.4229C58.0242 19.8952 57.9372 20.4048 57.9372 20.9517C57.9372 21.4986 58.0242 22.0064 58.1982 22.4751C58.3722 22.9439 58.6404 23.3221 59.0026 23.6097C59.3648 23.8974 59.8264 24.0412 60.3875 24.0412ZM66.0138 25V16.8182H67.2283V18.0966H67.3349C67.5053 17.6598 67.7805 17.3207 68.1605 17.0792C68.5405 16.8342 68.9968 16.7116 69.5295 16.7116C70.0692 16.7116 70.5185 16.8342 70.8771 17.0792C71.2393 17.3207 71.5217 17.6598 71.7241 18.0966H71.8093C72.0188 17.674 72.3331 17.3384 72.7521 17.0898C73.1712 16.8377 73.6737 16.7116 74.2596 16.7116C74.9911 16.7116 75.5895 16.9407 76.0547 17.3988C76.5199 17.8533 76.7525 18.5618 76.7525 19.5241V25H75.4954V19.5241C75.4954 18.9205 75.3303 18.489 75 18.2298C74.6697 17.9705 74.2809 17.8409 73.8335 17.8409C73.2582 17.8409 72.8125 18.0149 72.4964 18.3629C72.1804 18.7074 72.0224 19.1442 72.0224 19.6733V25H70.744V19.3963C70.744 18.9311 70.593 18.5565 70.2912 18.2724C69.9893 17.9847 69.6005 17.8409 69.1246 17.8409C68.7979 17.8409 68.4925 17.9279 68.2085 18.1019C67.9279 18.2759 67.7006 18.5174 67.5266 18.8263C67.3562 19.1317 67.271 19.4851 67.271 19.8864V25H66.0138ZM79.051 28.0682V16.8182H80.2654V18.1179H80.4146C80.5069 17.9759 80.6348 17.7947 80.7981 17.5746C80.965 17.3509 81.2029 17.152 81.5119 16.978C81.8244 16.8004 82.247 16.7116 82.7797 16.7116C83.4686 16.7116 84.0758 16.8839 84.6014 17.2283C85.127 17.5728 85.5371 18.0611 85.8319 18.6932C86.1266 19.3253 86.274 20.071 86.274 20.9304C86.274 21.7969 86.1266 22.5479 85.8319 23.1836C85.5371 23.8157 85.1287 24.3058 84.6067 24.6538C84.0847 24.9982 83.4828 25.1705 82.801 25.1705C82.2754 25.1705 81.8546 25.0835 81.5385 24.9094C81.2225 24.7319 80.9792 24.5312 80.8088 24.3075C80.6383 24.0803 80.5069 23.892 80.4146 23.7429H80.3081V28.0682H79.051ZM80.2868 20.9091C80.2868 21.527 80.3773 22.0721 80.5584 22.5444C80.7395 23.0131 81.0041 23.3807 81.3521 23.647C81.7001 23.9098 82.1262 24.0412 82.6305 24.0412C83.1561 24.0412 83.5946 23.9027 83.9462 23.6257C84.3013 23.3452 84.5676 22.9687 84.7452 22.4964C84.9263 22.0206 85.0169 21.4915 85.0169 20.9091C85.0169 20.3338 84.9281 19.8153 84.7505 19.3537C84.5765 18.8885 84.312 18.521 83.9569 18.2511C83.6053 17.9776 83.1632 17.8409 82.6305 17.8409C82.1191 17.8409 81.6895 17.9705 81.3414 18.2298C80.9934 18.4854 80.7306 18.8441 80.5531 19.3058C80.3755 19.7638 80.2868 20.2983 80.2868 20.9091ZM90.5993 25.1918C90.0808 25.1918 89.6103 25.0941 89.1877 24.8988C88.7651 24.6999 88.4295 24.4141 88.1809 24.0412C87.9324 23.6648 87.8081 23.2102 87.8081 22.6776C87.8081 22.2088 87.9004 21.8288 88.085 21.5376C88.2697 21.2429 88.5165 21.0121 88.8255 20.8452C89.1344 20.6783 89.4753 20.554 89.8482 20.4723C90.2246 20.3871 90.6028 20.3196 90.9828 20.2699C91.4799 20.206 91.883 20.158 92.1919 20.1261C92.5044 20.0906 92.7317 20.032 92.8738 19.9503C93.0194 19.8686 93.0922 19.7266 93.0922 19.5241V19.4815C93.0922 18.956 92.9483 18.5476 92.6607 18.2564C92.3766 17.9652 91.9451 17.8196 91.3663 17.8196C90.7662 17.8196 90.2956 17.951 89.9547 18.2138C89.6138 18.4766 89.3741 18.7571 89.2356 19.0554L88.0424 18.6293C88.2555 18.1321 88.5396 17.745 88.8947 17.468C89.2534 17.1875 89.644 16.9922 90.0666 16.8821C90.4927 16.7685 90.9118 16.7116 91.3237 16.7116C91.5865 16.7116 91.8883 16.7436 92.2292 16.8075C92.5737 16.8679 92.9057 16.994 93.2253 17.1857C93.5485 17.3775 93.8166 17.6669 94.0297 18.054C94.2427 18.4411 94.3493 18.9595 94.3493 19.6094V25H93.0922V23.892H93.0282C92.943 24.0696 92.801 24.2596 92.6021 24.462C92.4032 24.6644 92.1387 24.8366 91.8084 24.9787C91.4782 25.1207 91.0751 25.1918 90.5993 25.1918ZM90.791 24.0625C91.2882 24.0625 91.7072 23.9648 92.0481 23.7695C92.3926 23.5742 92.6518 23.3221 92.8258 23.0131C93.0034 22.7042 93.0922 22.3793 93.0922 22.0384V20.8878C93.0389 20.9517 92.9217 21.0103 92.7406 21.0636C92.563 21.1133 92.3571 21.1577 92.1227 21.1967C91.8919 21.2322 91.6664 21.2642 91.4462 21.2926C91.2296 21.3175 91.0538 21.3388 90.9189 21.3565C90.5922 21.3991 90.2868 21.4684 90.0027 21.5643C89.7221 21.6566 89.4949 21.7969 89.3208 21.9851C89.1504 22.1697 89.0652 22.4219 89.0652 22.7415C89.0652 23.1783 89.2267 23.5085 89.5499 23.7322C89.8766 23.9524 90.2903 24.0625 90.791 24.0625ZM96.6437 25V16.8182H97.8582V18.054H97.9434C98.0926 17.6491 98.3625 17.3207 98.7531 17.0685C99.1437 16.8164 99.5841 16.6903 100.074 16.6903C100.166 16.6903 100.282 16.6921 100.42 16.6957C100.559 16.6992 100.664 16.7045 100.735 16.7116V17.9901C100.692 17.9794 100.594 17.9634 100.442 17.9421C100.293 17.9173 100.134 17.9048 99.9676 17.9048C99.5699 17.9048 99.2148 17.9883 98.9023 18.1552C98.5933 18.3185 98.3483 18.5458 98.1672 18.837C97.9896 19.1246 97.9008 19.4531 97.9008 19.8224V25H96.6437ZM106.296 16.8182V17.8835H102.056V16.8182H106.296ZM103.291 14.858H104.549V22.6562C104.549 23.0114 104.6 23.2777 104.703 23.4553C104.81 23.6293 104.945 23.7464 105.108 23.8068C105.275 23.8636 105.451 23.892 105.635 23.892C105.774 23.892 105.887 23.8849 105.976 23.8707C106.065 23.853 106.136 23.8388 106.189 23.8281L106.445 24.9574C106.36 24.9893 106.241 25.0213 106.088 25.0533C105.935 25.0888 105.742 25.1065 105.507 25.1065C105.152 25.1065 104.804 25.0302 104.463 24.8775C104.126 24.7248 103.845 24.4922 103.622 24.1797C103.402 23.8672 103.291 23.473 103.291 22.9972V14.858ZM108.187 25V16.8182H109.444V25H108.187ZM108.826 15.4545C108.581 15.4545 108.37 15.3711 108.192 15.2042C108.018 15.0373 107.931 14.8366 107.931 14.6023C107.931 14.3679 108.018 14.1673 108.192 14.0004C108.37 13.8335 108.581 13.75 108.826 13.75C109.071 13.75 109.28 13.8335 109.454 14.0004C109.632 14.1673 109.721 14.3679 109.721 14.6023C109.721 14.8366 109.632 15.0373 109.454 15.2042C109.28 15.3711 109.071 15.4545 108.826 15.4545ZM111.746 25V16.8182H112.961V18.054H113.046C113.195 17.6491 113.465 17.3207 113.856 17.0685C114.246 16.8164 114.687 16.6903 115.177 16.6903C115.269 16.6903 115.384 16.6921 115.523 16.6957C115.661 16.6992 115.766 16.7045 115.837 16.7116V17.9901C115.795 17.9794 115.697 17.9634 115.544 17.9421C115.395 17.9173 115.237 17.9048 115.07 17.9048C114.672 17.9048 114.317 17.9883 114.005 18.1552C113.696 18.3185 113.451 18.5458 113.27 18.837C113.092 19.1246 113.003 19.4531 113.003 19.8224V25H111.746Z"/>
</mask>
<path d="M55.0994 17.5H53.7784C53.7003 17.12 53.5636 16.7862 53.3683 16.4986C53.1765 16.2109 52.9421 15.9695 52.6651 15.7741C52.3917 15.5753 52.0881 15.4261 51.7543 15.3267C51.4205 15.2273 51.0724 15.1776 50.7102 15.1776C50.0497 15.1776 49.4513 15.3445 48.9151 15.6783C48.3825 16.0121 47.9581 16.5039 47.642 17.1538C47.3295 17.8036 47.1733 18.6009 47.1733 19.5455C47.1733 20.4901 47.3295 21.2873 47.642 21.9371C47.9581 22.587 48.3825 23.0788 48.9151 23.4126C49.4513 23.7464 50.0497 23.9134 50.7102 23.9134C51.0724 23.9134 51.4205 23.8636 51.7543 23.7642C52.0881 23.6648 52.3917 23.5174 52.6651 23.3221C52.9421 23.1232 53.1765 22.88 53.3683 22.5923C53.5636 22.3011 53.7003 21.9673 53.7784 21.5909H55.0994C55 22.1484 54.8189 22.6474 54.5561 23.0877C54.2933 23.5281 53.9666 23.9027 53.576 24.2116C53.1854 24.517 52.7468 24.7496 52.2603 24.9094C51.7773 25.0692 51.2607 25.1491 50.7102 25.1491C49.7798 25.1491 48.9524 24.9219 48.228 24.4673C47.5036 24.0128 46.9336 23.3665 46.5181 22.5284C46.1026 21.6903 45.8949 20.696 45.8949 19.5455C45.8949 18.3949 46.1026 17.4006 46.5181 16.5625C46.9336 15.7244 47.5036 15.0781 48.228 14.6236C48.9524 14.169 49.7798 13.9418 50.7102 13.9418C51.2607 13.9418 51.7773 14.0217 52.2603 14.1815C52.7468 14.3413 53.1854 14.5756 53.576 14.8846C53.9666 15.19 54.2933 15.5629 54.5561 16.0032C54.8189 16.44 55 16.9389 55.0994 17.5ZM60.3875 25.1705C59.6489 25.1705 59.0008 24.9947 58.4433 24.6431C57.8893 24.2915 57.4561 23.7997 57.1436 23.1676C56.8346 22.5355 56.6801 21.7969 56.6801 20.9517C56.6801 20.0994 56.8346 19.3555 57.1436 18.7198C57.4561 18.0842 57.8893 17.5906 58.4433 17.239C59.0008 16.8874 59.6489 16.7116 60.3875 16.7116C61.1262 16.7116 61.7725 16.8874 62.3264 17.239C62.884 17.5906 63.3172 18.0842 63.6262 18.7198C63.9387 19.3555 64.0949 20.0994 64.0949 20.9517C64.0949 21.7969 63.9387 22.5355 63.6262 23.1676C63.3172 23.7997 62.884 24.2915 62.3264 24.6431C61.7725 24.9947 61.1262 25.1705 60.3875 25.1705ZM60.3875 24.0412C60.9486 24.0412 61.4102 23.8974 61.7725 23.6097C62.1347 23.3221 62.4028 22.9439 62.5768 22.4751C62.7508 22.0064 62.8378 21.4986 62.8378 20.9517C62.8378 20.4048 62.7508 19.8952 62.5768 19.4229C62.4028 18.9506 62.1347 18.5689 61.7725 18.2777C61.4102 17.9865 60.9486 17.8409 60.3875 17.8409C59.8264 17.8409 59.3648 17.9865 59.0026 18.2777C58.6404 18.5689 58.3722 18.9506 58.1982 19.4229C58.0242 19.8952 57.9372 20.4048 57.9372 20.9517C57.9372 21.4986 58.0242 22.0064 58.1982 22.4751C58.3722 22.9439 58.6404 23.3221 59.0026 23.6097C59.3648 23.8974 59.8264 24.0412 60.3875 24.0412ZM66.0138 25V16.8182H67.2283V18.0966H67.3349C67.5053 17.6598 67.7805 17.3207 68.1605 17.0792C68.5405 16.8342 68.9968 16.7116 69.5295 16.7116C70.0692 16.7116 70.5185 16.8342 70.8771 17.0792C71.2393 17.3207 71.5217 17.6598 71.7241 18.0966H71.8093C72.0188 17.674 72.3331 17.3384 72.7521 17.0898C73.1712 16.8377 73.6737 16.7116 74.2596 16.7116C74.9911 16.7116 75.5895 16.9407 76.0547 17.3988C76.5199 17.8533 76.7525 18.5618 76.7525 19.5241V25H75.4954V19.5241C75.4954 18.9205 75.3303 18.489 75 18.2298C74.6697 17.9705 74.2809 17.8409 73.8335 17.8409C73.2582 17.8409 72.8125 18.0149 72.4964 18.3629C72.1804 18.7074 72.0224 19.1442 72.0224 19.6733V25H70.744V19.3963C70.744 18.9311 70.593 18.5565 70.2912 18.2724C69.9893 17.9847 69.6005 17.8409 69.1246 17.8409C68.7979 17.8409 68.4925 17.9279 68.2085 18.1019C67.9279 18.2759 67.7006 18.5174 67.5266 18.8263C67.3562 19.1317 67.271 19.4851 67.271 19.8864V25H66.0138ZM79.051 28.0682V16.8182H80.2654V18.1179H80.4146C80.5069 17.9759 80.6348 17.7947 80.7981 17.5746C80.965 17.3509 81.2029 17.152 81.5119 16.978C81.8244 16.8004 82.247 16.7116 82.7797 16.7116C83.4686 16.7116 84.0758 16.8839 84.6014 17.2283C85.127 17.5728 85.5371 18.0611 85.8319 18.6932C86.1266 19.3253 86.274 20.071 86.274 20.9304C86.274 21.7969 86.1266 22.5479 85.8319 23.1836C85.5371 23.8157 85.1287 24.3058 84.6067 24.6538C84.0847 24.9982 83.4828 25.1705 82.801 25.1705C82.2754 25.1705 81.8546 25.0835 81.5385 24.9094C81.2225 24.7319 80.9792 24.5312 80.8088 24.3075C80.6383 24.0803 80.5069 23.892 80.4146 23.7429H80.3081V28.0682H79.051ZM80.2868 20.9091C80.2868 21.527 80.3773 22.0721 80.5584 22.5444C80.7395 23.0131 81.0041 23.3807 81.3521 23.647C81.7001 23.9098 82.1262 24.0412 82.6305 24.0412C83.1561 24.0412 83.5946 23.9027 83.9462 23.6257C84.3013 23.3452 84.5676 22.9687 84.7452 22.4964C84.9263 22.0206 85.0169 21.4915 85.0169 20.9091C85.0169 20.3338 84.9281 19.8153 84.7505 19.3537C84.5765 18.8885 84.312 18.521 83.9569 18.2511C83.6053 17.9776 83.1632 17.8409 82.6305 17.8409C82.1191 17.8409 81.6895 17.9705 81.3414 18.2298C80.9934 18.4854 80.7306 18.8441 80.5531 19.3058C80.3755 19.7638 80.2868 20.2983 80.2868 20.9091ZM90.5993 25.1918C90.0808 25.1918 89.6103 25.0941 89.1877 24.8988C88.7651 24.6999 88.4295 24.4141 88.1809 24.0412C87.9324 23.6648 87.8081 23.2102 87.8081 22.6776C87.8081 22.2088 87.9004 21.8288 88.085 21.5376C88.2697 21.2429 88.5165 21.0121 88.8255 20.8452C89.1344 20.6783 89.4753 20.554 89.8482 20.4723C90.2246 20.3871 90.6028 20.3196 90.9828 20.2699C91.4799 20.206 91.883 20.158 92.1919 20.1261C92.5044 20.0906 92.7317 20.032 92.8738 19.9503C93.0194 19.8686 93.0922 19.7266 93.0922 19.5241V19.4815C93.0922 18.956 92.9483 18.5476 92.6607 18.2564C92.3766 17.9652 91.9451 17.8196 91.3663 17.8196C90.7662 17.8196 90.2956 17.951 89.9547 18.2138C89.6138 18.4766 89.3741 18.7571 89.2356 19.0554L88.0424 18.6293C88.2555 18.1321 88.5396 17.745 88.8947 17.468C89.2534 17.1875 89.644 16.9922 90.0666 16.8821C90.4927 16.7685 90.9118 16.7116 91.3237 16.7116C91.5865 16.7116 91.8883 16.7436 92.2292 16.8075C92.5737 16.8679 92.9057 16.994 93.2253 17.1857C93.5485 17.3775 93.8166 17.6669 94.0297 18.054C94.2427 18.4411 94.3493 18.9595 94.3493 19.6094V25H93.0922V23.892H93.0282C92.943 24.0696 92.801 24.2596 92.6021 24.462C92.4032 24.6644 92.1387 24.8366 91.8084 24.9787C91.4782 25.1207 91.0751 25.1918 90.5993 25.1918ZM90.791 24.0625C91.2882 24.0625 91.7072 23.9648 92.0481 23.7695C92.3926 23.5742 92.6518 23.3221 92.8258 23.0131C93.0034 22.7042 93.0922 22.3793 93.0922 22.0384V20.8878C93.0389 20.9517 92.9217 21.0103 92.7406 21.0636C92.563 21.1133 92.3571 21.1577 92.1227 21.1967C91.8919 21.2322 91.6664 21.2642 91.4462 21.2926C91.2296 21.3175 91.0538 21.3388 90.9189 21.3565C90.5922 21.3991 90.2868 21.4684 90.0027 21.5643C89.7221 21.6566 89.4949 21.7969 89.3208 21.9851C89.1504 22.1697 89.0652 22.4219 89.0652 22.7415C89.0652 23.1783 89.2267 23.5085 89.5499 23.7322C89.8766 23.9524 90.2903 24.0625 90.791 24.0625ZM96.6437 25V16.8182H97.8582V18.054H97.9434C98.0926 17.6491 98.3625 17.3207 98.7531 17.0685C99.1437 16.8164 99.5841 16.6903 100.074 16.6903C100.166 16.6903 100.282 16.6921 100.42 16.6957C100.559 16.6992 100.664 16.7045 100.735 16.7116V17.9901C100.692 17.9794 100.594 17.9634 100.442 17.9421C100.293 17.9173 100.134 17.9048 99.9676 17.9048C99.5699 17.9048 99.2148 17.9883 98.9023 18.1552C98.5933 18.3185 98.3483 18.5458 98.1672 18.837C97.9896 19.1246 97.9008 19.4531 97.9008 19.8224V25H96.6437ZM106.296 16.8182V17.8835H102.056V16.8182H106.296ZM103.291 14.858H104.549V22.6562C104.549 23.0114 104.6 23.2777 104.703 23.4553C104.81 23.6293 104.945 23.7464 105.108 23.8068C105.275 23.8636 105.451 23.892 105.635 23.892C105.774 23.892 105.887 23.8849 105.976 23.8707C106.065 23.853 106.136 23.8388 106.189 23.8281L106.445 24.9574C106.36 24.9893 106.241 25.0213 106.088 25.0533C105.935 25.0888 105.742 25.1065 105.507 25.1065C105.152 25.1065 104.804 25.0302 104.463 24.8775C104.126 24.7248 103.845 24.4922 103.622 24.1797C103.402 23.8672 103.291 23.473 103.291 22.9972V14.858ZM108.187 25V16.8182H109.444V25H108.187ZM108.826 15.4545C108.581 15.4545 108.37 15.3711 108.192 15.2042C108.018 15.0373 107.931 14.8366 107.931 14.6023C107.931 14.3679 108.018 14.1673 108.192 14.0004C108.37 13.8335 108.581 13.75 108.826 13.75C109.071 13.75 109.28 13.8335 109.454 14.0004C109.632 14.1673 109.721 14.3679 109.721 14.6023C109.721 14.8366 109.632 15.0373 109.454 15.2042C109.28 15.3711 109.071 15.4545 108.826 15.4545ZM111.746 25V16.8182H112.961V18.054H113.046C113.195 17.6491 113.465 17.3207 113.856 17.0685C114.246 16.8164 114.687 16.6903 115.177 16.6903C115.269 16.6903 115.384 16.6921 115.523 16.6957C115.661 16.6992 115.766 16.7045 115.837 16.7116V17.9901C115.795 17.9794 115.697 17.9634 115.544 17.9421C115.395 17.9173 115.237 17.9048 115.07 17.9048C114.672 17.9048 114.317 17.9883 114.005 18.1552C113.696 18.3185 113.451 18.5458 113.27 18.837C113.092 19.1246 113.003 19.4531 113.003 19.8224V25H111.746Z" fill="white"/>
<path d="M55.0994 17.5V17.8H55.4573L55.3948 17.4477L55.0994 17.5ZM53.7784 17.5L53.4846 17.5604L53.5338 17.8H53.7784V17.5ZM53.3683 16.4986L53.1186 16.665L53.1201 16.6671L53.3683 16.4986ZM52.6651 15.7741L52.4887 16.0168L52.4922 16.0193L52.6651 15.7741ZM51.7543 15.3267L51.6686 15.6142L51.7543 15.3267ZM48.9151 15.6783L48.7566 15.4236L48.7558 15.4241L48.9151 15.6783ZM47.642 17.1538L47.3723 17.0226L47.3717 17.0238L47.642 17.1538ZM47.642 21.9371L47.3717 22.0672L47.3723 22.0684L47.642 21.9371ZM48.9151 23.4126L48.7558 23.6669L48.7566 23.6673L48.9151 23.4126ZM51.7543 23.7642L51.6686 23.4767H51.6686L51.7543 23.7642ZM52.6651 23.3221L52.8395 23.5662L52.8401 23.5658L52.6651 23.3221ZM53.3683 22.5923L53.1191 22.4252L53.1186 22.4259L53.3683 22.5923ZM53.7784 21.5909V21.2909H53.5343L53.4847 21.5299L53.7784 21.5909ZM55.0994 21.5909L55.3948 21.6436L55.4577 21.2909H55.0994V21.5909ZM54.5561 23.0877L54.2985 22.934V22.934L54.5561 23.0877ZM53.576 24.2116L53.7608 24.448L53.7621 24.4469L53.576 24.2116ZM52.2603 24.9094L52.1667 24.6244L52.1661 24.6246L52.2603 24.9094ZM48.228 24.4673L48.0685 24.7214L48.228 24.4673ZM46.5181 22.5284L46.7869 22.3952L46.5181 22.5284ZM46.5181 16.5625L46.2493 16.4292L46.5181 16.5625ZM52.2603 14.1815L52.1661 14.4663L52.1667 14.4665L52.2603 14.1815ZM53.576 14.8846L53.3899 15.1199L53.3912 15.1209L53.576 14.8846ZM54.5561 16.0032L54.2985 16.1569L54.299 16.1579L54.5561 16.0032ZM55.0994 17.2H53.7784V17.8H55.0994V17.2ZM54.0723 17.4396C53.9871 17.0254 53.8364 16.654 53.6164 16.3301L53.1201 16.6671C53.2908 16.9185 53.4135 17.2147 53.4846 17.5604L54.0723 17.4396ZM53.6179 16.3322C53.406 16.0144 53.1458 15.746 52.838 15.529L52.4922 16.0193C52.7384 16.1929 52.947 16.4075 53.1186 16.665L53.6179 16.3322ZM52.8416 15.5315C52.5398 15.3121 52.2053 15.148 51.8399 15.0392L51.6686 15.6142C51.9708 15.7042 52.2436 15.8385 52.4887 16.0168L52.8416 15.5315ZM51.8399 15.0392C51.4772 14.9312 51.1003 14.8776 50.7102 14.8776V15.4776C51.0446 15.4776 51.3637 15.5234 51.6686 15.6142L51.8399 15.0392ZM50.7102 14.8776C49.9964 14.8776 49.3426 15.0588 48.7566 15.4236L49.0737 15.933C49.5601 15.6302 50.1031 15.4776 50.7102 15.4776V14.8776ZM48.7558 15.4241C48.1687 15.792 47.7091 16.3299 47.3723 17.0226L47.9118 17.285C48.2071 16.6779 48.5962 16.2322 49.0744 15.9325L48.7558 15.4241ZM47.3717 17.0238C47.0346 17.7247 46.8733 18.5692 46.8733 19.5455H47.4733C47.4733 18.6325 47.6245 17.8825 47.9124 17.2838L47.3717 17.0238ZM46.8733 19.5455C46.8733 20.5217 47.0346 21.3662 47.3717 22.0672L47.9124 21.8071C47.6245 21.2084 47.4733 20.4584 47.4733 19.5455H46.8733ZM47.3723 22.0684C47.7091 22.761 48.1687 23.2989 48.7558 23.6669L49.0744 23.1584C48.5962 22.8587 48.2071 22.413 47.9118 21.8059L47.3723 22.0684ZM48.7566 23.6673C49.3426 24.0321 49.9964 24.2134 50.7102 24.2134V23.6134C50.1031 23.6134 49.5601 23.4608 49.0737 23.158L48.7566 23.6673ZM50.7102 24.2134C51.1003 24.2134 51.4772 24.1598 51.8399 24.0517L51.6686 23.4767C51.3637 23.5675 51.0446 23.6134 50.7102 23.6134V24.2134ZM51.8399 24.0517C52.2043 23.9432 52.5381 23.7815 52.8395 23.5662L52.4908 23.078C52.2453 23.2533 51.9718 23.3864 51.6686 23.4767L51.8399 24.0517ZM52.8401 23.5658C53.1468 23.3456 53.4064 23.076 53.6179 22.7587L53.1186 22.4259C52.9466 22.6839 52.7374 22.9009 52.4902 23.0784L52.8401 23.5658ZM53.6174 22.7594C53.8363 22.4331 53.9869 22.0626 54.0722 21.6519L53.4847 21.5299C53.4137 21.8721 53.2908 22.1692 53.1191 22.4252L53.6174 22.7594ZM53.7784 21.8909H55.0994V21.2909H53.7784V21.8909ZM54.8041 21.5382C54.7104 22.0638 54.5409 22.5279 54.2985 22.934L54.8137 23.2415C55.0969 22.7669 55.2896 22.2331 55.3948 21.6436L54.8041 21.5382ZM54.2985 22.934C54.0538 23.344 53.7511 23.6907 53.3899 23.9763L53.7621 24.4469C54.1822 24.1147 54.5328 23.7122 54.8137 23.2415L54.2985 22.934ZM53.3912 23.9753C53.0288 24.2586 52.6213 24.4751 52.1667 24.6244L52.3539 25.1945C52.8723 25.0242 53.3419 24.7755 53.7608 24.448L53.3912 23.9753ZM52.1661 24.6246C51.7159 24.7736 51.2313 24.8491 50.7102 24.8491V25.4491C51.2901 25.4491 51.8388 25.3649 52.3545 25.1943L52.1661 24.6246ZM50.7102 24.8491C49.8311 24.8491 49.0599 24.6352 48.3874 24.2132L48.0685 24.7214C48.8449 25.2086 49.7286 25.4491 50.7102 25.4491V24.8491ZM48.3874 24.2132C47.7142 23.7908 47.1802 23.1884 46.7869 22.3952L46.2493 22.6617C46.687 23.5445 47.2929 24.2347 48.0685 24.7214L48.3874 24.2132ZM46.7869 22.3952C46.3961 21.6069 46.1949 20.6602 46.1949 19.5455H45.5949C45.5949 20.7318 45.8091 21.7737 46.2493 22.6617L46.7869 22.3952ZM46.1949 19.5455C46.1949 18.4307 46.3961 17.484 46.7869 16.6958L46.2493 16.4292C45.8091 17.3172 45.5949 18.3591 45.5949 19.5455H46.1949ZM46.7869 16.6958C47.1802 15.9025 47.7142 15.3001 48.3874 14.8777L48.0685 14.3695C47.2929 14.8562 46.687 15.5464 46.2493 16.4292L46.7869 16.6958ZM48.3874 14.8777C49.0599 14.4558 49.8311 14.2418 50.7102 14.2418V13.6418C49.7286 13.6418 48.8449 13.8823 48.0685 14.3695L48.3874 14.8777ZM50.7102 14.2418C51.2313 14.2418 51.7159 14.3173 52.1661 14.4663L52.3545 13.8966C51.8388 13.726 51.2901 13.6418 50.7102 13.6418V14.2418ZM52.1667 14.4665C52.6206 14.6156 53.0277 14.8334 53.3899 15.1199L53.7621 14.6493C53.343 14.3178 52.873 14.0669 52.3539 13.8964L52.1667 14.4665ZM53.3912 15.1209C53.7517 15.4027 54.054 15.7473 54.2985 16.1569L54.8137 15.8495C54.5326 15.3784 54.1816 14.9772 53.7608 14.6482L53.3912 15.1209ZM54.299 16.1579C54.5408 16.5597 54.7103 17.0232 54.804 17.5523L55.3948 17.4477C55.2897 16.8547 55.097 16.3203 54.8132 15.8485L54.299 16.1579ZM58.4433 24.6431L58.2825 24.8964L58.2833 24.8969L58.4433 24.6431ZM57.1436 23.1676L56.874 23.2994L56.8746 23.3006L57.1436 23.1676ZM57.1436 18.7198L56.8743 18.5875L56.8737 18.5887L57.1436 18.7198ZM58.4433 17.239L58.2833 16.9852L58.2825 16.9857L58.4433 17.239ZM62.3264 17.239L62.1657 17.4923L62.1664 17.4928L62.3264 17.239ZM63.6262 18.7198L63.3563 18.851L63.3569 18.8522L63.6262 18.7198ZM63.6262 23.1676L63.3572 23.0347L63.3566 23.0359L63.6262 23.1676ZM62.3264 24.6431L62.1664 24.3893L62.1657 24.3898L62.3264 24.6431ZM61.7725 23.6097L61.5859 23.3748L61.7725 23.6097ZM62.5768 22.4751L62.858 22.5795L62.5768 22.4751ZM62.5768 19.4229L62.8583 19.3192L62.5768 19.4229ZM61.7725 18.2777L61.9604 18.0439L61.7725 18.2777ZM59.0026 18.2777L58.8146 18.0439L59.0026 18.2777ZM58.1982 19.4229L57.9167 19.3192L58.1982 19.4229ZM58.1982 22.4751L57.917 22.5795L58.1982 22.4751ZM59.0026 23.6097L59.1891 23.3748L59.0026 23.6097ZM60.3875 24.8705C59.6985 24.8705 59.1073 24.7072 58.6033 24.3893L58.2833 24.8969C58.8943 25.2822 59.5993 25.4705 60.3875 25.4705V24.8705ZM58.604 24.3898C58.0999 24.0699 57.7025 23.6213 57.4125 23.0347L56.8746 23.3006C57.2096 23.9781 57.6787 24.5132 58.2825 24.8964L58.604 24.3898ZM57.4131 23.0359C57.1278 22.4522 56.9801 21.7603 56.9801 20.9517H56.3801C56.3801 21.8335 56.5414 22.6188 56.874 23.2993L57.4131 23.0359ZM56.9801 20.9517C56.9801 20.1356 57.128 19.4382 57.4134 18.851L56.8737 18.5887C56.5413 19.2727 56.3801 20.0632 56.3801 20.9517H56.9801ZM57.4128 18.8522C57.7029 18.262 58.1003 17.8119 58.604 17.4923L58.2825 16.9857C57.6782 17.3692 57.2092 17.9064 56.8743 18.5875L57.4128 18.8522ZM58.6033 17.4928C59.1073 17.1749 59.6985 17.0116 60.3875 17.0116V16.4116C59.5993 16.4116 58.8943 16.5999 58.2833 16.9852L58.6033 17.4928ZM60.3875 17.0116C61.0766 17.0116 61.6656 17.175 62.1657 17.4923L62.4872 16.9857C61.8793 16.5999 61.1757 16.4116 60.3875 16.4116V17.0116ZM62.1664 17.4928C62.6732 17.8123 63.07 18.2618 63.3563 18.851L63.896 18.5887C63.5644 17.9065 63.0947 17.3688 62.4865 16.9852L62.1664 17.4928ZM63.3569 18.8522C63.6455 19.4391 63.7949 20.1361 63.7949 20.9517H64.3949C64.3949 20.0628 64.2318 19.2718 63.8954 18.5875L63.3569 18.8522ZM63.7949 20.9517C63.7949 21.7598 63.6456 22.4513 63.3572 23.0347L63.8951 23.3006C64.2317 22.6197 64.3949 21.8339 64.3949 20.9517H63.7949ZM63.3566 23.0359C63.0704 23.6214 62.6736 24.0695 62.1664 24.3893L62.4865 24.8969C63.0943 24.5136 63.564 23.978 63.8957 23.2993L63.3566 23.0359ZM62.1657 24.3898C61.6656 24.7071 61.0766 24.8705 60.3875 24.8705V25.4705C61.1757 25.4705 61.8793 25.2822 62.4872 24.8964L62.1657 24.3898ZM60.3875 24.3412C61.0014 24.3412 61.5332 24.1829 61.959 23.8447L61.5859 23.3748C61.2873 23.6119 60.8957 23.7412 60.3875 23.7412V24.3412ZM61.959 23.8447C62.3676 23.5202 62.6666 23.0953 62.858 22.5795L62.2955 22.3707C62.139 22.7925 61.9018 23.124 61.5859 23.3748L61.959 23.8447ZM62.858 22.5795C63.0456 22.0744 63.1378 21.5309 63.1378 20.9517H62.5378C62.5378 21.4663 62.456 21.9384 62.2955 22.3707L62.858 22.5795ZM63.1378 20.9517C63.1378 20.3725 63.0456 19.8275 62.8583 19.3192L62.2953 19.5267C62.456 19.963 62.5378 20.4372 62.5378 20.9517H63.1378ZM62.8583 19.3192C62.6671 18.8003 62.3685 18.372 61.9604 18.0439L61.5845 18.5115C61.9008 18.7658 62.1385 19.101 62.2953 19.5267L62.8583 19.3192ZM61.9604 18.0439C61.5345 17.7015 61.0023 17.5409 60.3875 17.5409V18.1409C60.8949 18.1409 61.286 18.2715 61.5845 18.5115L61.9604 18.0439ZM60.3875 17.5409C59.7727 17.5409 59.2405 17.7015 58.8146 18.0439L59.1905 18.5115C59.4891 18.2715 59.8801 18.1409 60.3875 18.1409V17.5409ZM58.8146 18.0439C58.4065 18.372 58.1079 18.8003 57.9167 19.3192L58.4797 19.5267C58.6366 19.101 58.8742 18.7658 59.1905 18.5115L58.8146 18.0439ZM57.9167 19.3192C57.7295 19.8275 57.6372 20.3725 57.6372 20.9517H58.2372C58.2372 20.4372 58.319 19.963 58.4797 19.5267L57.9167 19.3192ZM57.6372 20.9517C57.6372 21.5309 57.7295 22.0744 57.917 22.5795L58.4795 22.3707C58.319 21.9384 58.2372 21.4663 58.2372 20.9517H57.6372ZM57.917 22.5795C58.1085 23.0953 58.4074 23.5202 58.816 23.8447L59.1891 23.3748C58.8733 23.124 58.636 22.7925 58.4795 22.3707L57.917 22.5795ZM58.816 23.8447C59.2419 24.1829 59.7736 24.3412 60.3875 24.3412V23.7412C59.8793 23.7412 59.4877 23.6119 59.1891 23.3748L58.816 23.8447ZM66.0138 25H65.7139V25.3H66.0138V25ZM66.0138 16.8182V16.5182H65.7139V16.8182H66.0138ZM67.2283 16.8182H67.5283V16.5182H67.2283V16.8182ZM67.2283 18.0966H66.9283V18.3966H67.2283V18.0966ZM67.3349 18.0966V18.3966H67.5398L67.6143 18.2057L67.3349 18.0966ZM68.1605 17.0792L68.3214 17.3324L68.3231 17.3313L68.1605 17.0792ZM70.8771 17.0792L70.7079 17.3269L70.7107 17.3288L70.8771 17.0792ZM71.7241 18.0966L71.4519 18.2227L71.5325 18.3966H71.7241V18.0966ZM71.8093 18.0966V18.3966H71.9954L72.0781 18.2299L71.8093 18.0966ZM72.7521 17.0898L72.9052 17.3479L72.9068 17.3469L72.7521 17.0898ZM76.0547 17.3988L75.8442 17.6126L75.845 17.6134L76.0547 17.3988ZM76.7525 25V25.3H77.0525V25H76.7525ZM75.4954 25H75.1954V25.3H75.4954V25ZM75 18.2298L74.8148 18.4657L75 18.2298ZM72.4964 18.3629L72.7175 18.5657L72.7185 18.5646L72.4964 18.3629ZM72.0224 25V25.3H72.3224V25H72.0224ZM70.744 25H70.444V25.3H70.744V25ZM70.2912 18.2724L70.0842 18.4896L70.0856 18.4908L70.2912 18.2724ZM68.2085 18.1019L68.0518 17.8461L68.0503 17.847L68.2085 18.1019ZM67.5266 18.8263L67.2652 18.6791L67.2647 18.6801L67.5266 18.8263ZM67.271 25V25.3H67.571V25H67.271ZM66.3139 25V16.8182H65.7139V25H66.3139ZM66.0138 17.1182H67.2283V16.5182H66.0138V17.1182ZM66.9283 16.8182V18.0966H67.5283V16.8182H66.9283ZM67.2283 18.3966H67.3349V17.7966H67.2283V18.3966ZM67.6143 18.2057C67.7626 17.8257 67.9976 17.5382 68.3214 17.3324L67.9996 16.826C67.5635 17.1032 67.248 17.4939 67.0554 17.9875L67.6143 18.2057ZM68.3231 17.3313C68.6465 17.1228 69.044 17.0116 69.5295 17.0116V16.4116C68.9496 16.4116 68.4345 16.5456 67.9979 16.8271L68.3231 17.3313ZM69.5295 17.0116C70.0236 17.0116 70.41 17.1234 70.7079 17.3269L71.0464 16.8315C70.6269 16.5449 70.1149 16.4116 69.5295 16.4116V17.0116ZM70.7107 17.3288C71.0222 17.5365 71.2702 17.8306 71.4519 18.2227L71.9963 17.9705C71.7732 17.489 71.4565 17.1049 71.0435 16.8296L70.7107 17.3288ZM71.7241 18.3966H71.8093V17.7966H71.7241V18.3966ZM72.0781 18.2299C72.261 17.8609 72.5342 17.5679 72.9052 17.3479L72.5991 16.8318C72.132 17.1089 71.7766 17.4871 71.5405 17.9633L72.0781 18.2299ZM72.9068 17.3469C73.2706 17.128 73.7173 17.0116 74.2596 17.0116V16.4116C73.63 16.4116 73.0717 16.5474 72.5975 16.8328L72.9068 17.3469ZM74.2596 17.0116C74.9227 17.0116 75.4421 17.2166 75.8442 17.6125L76.2652 17.185C75.7369 16.6648 75.0595 16.4116 74.2596 16.4116V17.0116ZM75.845 17.6134C76.2297 17.9892 76.4525 18.6039 76.4525 19.5241H77.0525C77.0525 18.5196 76.8101 17.7175 76.2643 17.1842L75.845 17.6134ZM76.4525 19.5241V25H77.0525V19.5241H76.4525ZM76.7525 24.7H75.4954V25.3H76.7525V24.7ZM75.7954 25V19.5241H75.1954V25H75.7954ZM75.7954 19.5241C75.7954 18.8705 75.6157 18.3316 75.1852 17.9938L74.8148 18.4657C75.0448 18.6463 75.1954 18.9704 75.1954 19.5241H75.7954ZM75.1852 17.9938C74.7985 17.6902 74.3433 17.5409 73.8335 17.5409V18.1409C74.2185 18.1409 74.5409 18.2508 74.8148 18.4657L75.1852 17.9938ZM73.8335 17.5409C73.194 17.5409 72.6597 17.7369 72.2744 18.1612L72.7185 18.5646C72.9653 18.2929 73.3223 18.1409 73.8335 18.1409V17.5409ZM72.2754 18.1601C71.9018 18.5673 71.7224 19.0797 71.7224 19.6733H72.3224C72.3224 19.2086 72.459 18.8475 72.7175 18.5657L72.2754 18.1601ZM71.7224 19.6733V25H72.3224V19.6733H71.7224ZM72.0224 24.7H70.744V25.3H72.0224V24.7ZM71.044 25V19.3963H70.444V25H71.044ZM71.044 19.3963C71.044 18.8595 70.8666 18.4019 70.4968 18.0539L70.0856 18.4908C70.3195 18.711 70.444 19.0027 70.444 19.3963H71.044ZM70.4982 18.0552C70.1326 17.7068 69.6658 17.5409 69.1246 17.5409V18.1409C69.5352 18.1409 69.8461 18.2627 70.0842 18.4896L70.4982 18.0552ZM69.1246 17.5409C68.7415 17.5409 68.382 17.6438 68.0518 17.8461L68.3651 18.3577C68.6031 18.212 68.8544 18.1409 69.1246 18.1409V17.5409ZM68.0503 17.847C67.7237 18.0496 67.4622 18.3295 67.2652 18.6791L67.788 18.9736C67.9391 18.7053 68.1321 18.5023 68.3666 18.3569L68.0503 17.847ZM67.2647 18.6801C67.0658 19.0365 66.971 19.4415 66.971 19.8864H67.571C67.571 19.5286 67.6466 19.227 67.7886 18.9726L67.2647 18.6801ZM66.971 19.8864V25H67.571V19.8864H66.971ZM67.271 24.7H66.0138V25.3H67.271V24.7ZM79.051 28.0682H78.751V28.3682H79.051V28.0682ZM79.051 16.8182V16.5182H78.751V16.8182H79.051ZM80.2654 16.8182H80.5654V16.5182H80.2654V16.8182ZM80.2654 18.1179H79.9654V18.4179H80.2654V18.1179ZM80.4146 18.1179V18.4179H80.5774L80.6661 18.2814L80.4146 18.1179ZM80.7981 17.5746L80.5577 17.3952L80.5572 17.3958L80.7981 17.5746ZM81.5119 16.978L81.6591 17.2394L81.6601 17.2388L81.5119 16.978ZM84.6014 17.2283L84.7658 16.9774V16.9774L84.6014 17.2283ZM85.8319 18.6932L86.1037 18.5664L85.8319 18.6932ZM85.8319 23.1836L86.1037 23.3104L86.104 23.3098L85.8319 23.1836ZM84.6067 24.6538L84.7719 24.9042L84.7731 24.9034L84.6067 24.6538ZM81.5385 24.9094L81.3916 25.171L81.3938 25.1722L81.5385 24.9094ZM80.8088 24.3075L80.5688 24.4875L80.5701 24.4893L80.8088 24.3075ZM80.4146 23.7429L80.6697 23.585L80.5817 23.4429H80.4146V23.7429ZM80.3081 23.7429V23.4429H80.0081V23.7429H80.3081ZM80.3081 28.0682V28.3682H80.6081V28.0682H80.3081ZM80.5584 22.5444L80.2783 22.6518L80.2786 22.6525L80.5584 22.5444ZM81.3521 23.647L81.1698 23.8853L81.1713 23.8864L81.3521 23.647ZM83.9462 23.6257L84.1319 23.8614L84.1322 23.8611L83.9462 23.6257ZM84.7452 22.4964L84.4648 22.3897L84.4644 22.3909L84.7452 22.4964ZM84.7505 19.3537L84.4695 19.4588L84.4705 19.4614L84.7505 19.3537ZM83.9569 18.2511L83.7727 18.4879L83.7753 18.4899L83.9569 18.2511ZM81.3414 18.2298L81.5191 18.4715L81.5207 18.4703L81.3414 18.2298ZM80.5531 19.3058L80.8328 19.4142L80.8331 19.4134L80.5531 19.3058ZM79.351 28.0682V16.8182H78.751V28.0682H79.351ZM79.051 17.1182H80.2654V16.5182H79.051V17.1182ZM79.9654 16.8182V18.1179H80.5654V16.8182H79.9654ZM80.2654 18.4179H80.4146V17.8179H80.2654V18.4179ZM80.6661 18.2814C80.7537 18.1467 80.8774 17.9712 81.039 17.7533L80.5572 17.3958C80.3921 17.6183 80.2602 17.805 80.1631 17.9544L80.6661 18.2814ZM81.0386 17.754C81.1747 17.5715 81.3771 17.3982 81.6591 17.2394L81.3647 16.7166C81.0288 16.9058 80.7554 17.1302 80.5577 17.3952L81.0386 17.754ZM81.6601 17.2388C81.9108 17.0964 82.2757 17.0116 82.7797 17.0116V16.4116C82.2183 16.4116 81.738 16.5045 81.3637 16.7171L81.6601 17.2388ZM82.7797 17.0116C83.416 17.0116 83.9649 17.1699 84.4369 17.4792L84.7658 16.9774C84.1867 16.5979 83.5211 16.4116 82.7797 16.4116V17.0116ZM84.4369 17.4792C84.9108 17.7898 85.2861 18.2327 85.56 18.82L86.1037 18.5664C85.7881 17.8895 85.3431 17.3558 84.7658 16.9774L84.4369 17.4792ZM85.56 18.82C85.8324 19.4042 85.974 20.1049 85.974 20.9304H86.574C86.574 20.0372 86.4208 19.2463 86.1037 18.5664L85.56 18.82ZM85.974 20.9304C85.974 21.7633 85.8323 22.4695 85.5597 23.0574L86.104 23.3098C86.4209 22.6264 86.574 21.8304 86.574 20.9304H85.974ZM85.56 23.0568C85.2858 23.6448 84.9116 24.09 84.4403 24.4041L84.7731 24.9034C85.3459 24.5215 85.7884 23.9866 86.1037 23.3104L85.56 23.0568ZM84.4415 24.4034C83.9729 24.7126 83.4296 24.8705 82.801 24.8705V25.4705C83.536 25.4705 84.1965 25.2839 84.7719 24.9042L84.4415 24.4034ZM82.801 24.8705C82.3044 24.8705 81.9393 24.7876 81.6832 24.6466L81.3938 25.1722C81.7699 25.3793 82.2463 25.4705 82.801 25.4705V24.8705ZM81.6855 24.6479C81.3952 24.4848 81.187 24.3089 81.0474 24.1257L80.5701 24.4893C80.7715 24.7536 81.0497 24.9789 81.3916 25.171L81.6855 24.6479ZM81.0488 24.1275C80.8808 23.9036 80.7553 23.7234 80.6697 23.585L80.1595 23.9008C80.2585 24.0607 80.3958 24.2569 80.5688 24.4875L81.0488 24.1275ZM80.4146 23.4429H80.3081V24.0429H80.4146V23.4429ZM80.0081 23.7429V28.0682H80.6081V23.7429H80.0081ZM80.3081 27.7682H79.051V28.3682H80.3081V27.7682ZM79.9868 20.9091C79.9868 21.5558 80.0815 22.1386 80.2783 22.6518L80.8385 22.437C80.6731 22.0056 80.5868 21.4982 80.5868 20.9091H79.9868ZM80.2786 22.6525C80.4766 23.1651 80.7718 23.5807 81.1698 23.8853L81.5344 23.4088C81.2364 23.1807 81.0024 22.8612 80.8383 22.4363L80.2786 22.6525ZM81.1713 23.8864C81.5793 24.1945 82.0716 24.3412 82.6305 24.3412V23.7412C82.1809 23.7412 81.8209 23.6251 81.5329 23.4076L81.1713 23.8864ZM82.6305 24.3412C83.2112 24.3412 83.7185 24.187 84.1319 23.8614L83.7605 23.3901C83.4707 23.6184 83.1009 23.7412 82.6305 23.7412V24.3412ZM84.1322 23.8611C84.5349 23.5429 84.8315 23.1194 85.026 22.602L84.4644 22.3909C84.3038 22.8181 84.0677 23.1474 83.7602 23.3903L84.1322 23.8611ZM85.0256 22.6032C85.2214 22.0887 85.3169 21.5228 85.3169 20.9091H84.7169C84.7169 21.4602 84.6312 21.9525 84.4648 22.3897L85.0256 22.6032ZM85.3169 20.9091C85.3169 20.3029 85.2233 19.7471 85.0305 19.246L84.4705 19.4614C84.6329 19.8836 84.7169 20.3647 84.7169 20.9091H85.3169ZM85.0315 19.2486C84.84 18.7365 84.5436 18.3202 84.1384 18.0122L83.7753 18.4899C84.0803 18.7217 84.3131 19.0405 84.4695 19.4588L85.0315 19.2486ZM84.141 18.0143C83.7271 17.6923 83.2164 17.5409 82.6305 17.5409V18.1409C83.11 18.1409 83.4835 18.263 83.7727 18.4879L84.141 18.0143ZM82.6305 17.5409C82.0665 17.5409 81.5708 17.6848 81.1622 17.9892L81.5207 18.4703C81.8081 18.2562 82.1718 18.1409 82.6305 18.1409V17.5409ZM81.1638 17.988C80.7631 18.2824 80.4682 18.6908 80.2731 19.1981L80.8331 19.4134C80.9931 18.9974 81.2237 18.6885 81.5191 18.4715L81.1638 17.988ZM80.2734 19.1973C80.0796 19.6973 79.9868 20.2699 79.9868 20.9091H80.5868C80.5868 20.3267 80.6715 19.8304 80.8328 19.4142L80.2734 19.1973ZM89.1877 24.8988L89.0599 25.1702L89.0618 25.1711L89.1877 24.8988ZM88.1809 24.0412L87.9306 24.2065L87.9313 24.2076L88.1809 24.0412ZM88.085 21.5376L88.3384 21.6983L88.3393 21.6969L88.085 21.5376ZM88.8255 20.8452L88.9681 21.1091L88.8255 20.8452ZM89.8482 20.4723L89.9124 20.7654L89.9144 20.7649L89.8482 20.4723ZM90.9828 20.2699L90.9445 19.9723L90.9439 19.9724L90.9828 20.2699ZM92.1919 20.1261L92.2228 20.4245L92.2258 20.4241L92.1919 20.1261ZM92.8738 19.9503L92.727 19.6886L92.7242 19.6902L92.8738 19.9503ZM92.6607 18.2564L92.4459 18.4659L92.4473 18.4672L92.6607 18.2564ZM89.9547 18.2138L90.1379 18.4514L89.9547 18.2138ZM89.2356 19.0554L89.1347 19.3379L89.3925 19.43L89.5077 19.1817L89.2356 19.0554ZM88.0424 18.6293L87.7667 18.5111L87.641 18.8044L87.9415 18.9118L88.0424 18.6293ZM88.8947 17.468L89.0792 17.7046L89.0795 17.7043L88.8947 17.468ZM90.0666 16.8821L90.1422 17.1724L90.1439 17.172L90.0666 16.8821ZM92.2292 16.8075L92.1739 17.1024L92.1774 17.103L92.2292 16.8075ZM93.2253 17.1857L93.071 17.443L93.0722 17.4437L93.2253 17.1857ZM94.0297 18.054L93.7668 18.1986L94.0297 18.054ZM94.3493 25V25.3H94.6493V25H94.3493ZM93.0922 25H92.7922V25.3H93.0922V25ZM93.0922 23.892H93.3922V23.592H93.0922V23.892ZM93.0282 23.892V23.592H92.8395L92.7578 23.7622L93.0282 23.892ZM92.6021 24.462L92.8161 24.6722V24.6722L92.6021 24.462ZM91.8084 24.9787L91.6899 24.7031L91.8084 24.9787ZM92.0481 23.7695L91.9001 23.5086L91.899 23.5092L92.0481 23.7695ZM92.8258 23.0131L92.5657 22.8636L92.5644 22.8659L92.8258 23.0131ZM93.0922 20.8878H93.3922V20.0592L92.8617 20.6957L93.0922 20.8878ZM92.7406 21.0636L92.8215 21.3525L92.8252 21.3514L92.7406 21.0636ZM92.1227 21.1967L92.1683 21.4933L92.172 21.4927L92.1227 21.1967ZM91.4462 21.2926L91.4804 21.5907L91.4846 21.5901L91.4462 21.2926ZM90.9189 21.3565L90.9577 21.654L90.958 21.654L90.9189 21.3565ZM90.0027 21.5643L90.0965 21.8492L90.0986 21.8485L90.0027 21.5643ZM89.3208 21.9851L89.1006 21.7814L89.1004 21.7816L89.3208 21.9851ZM89.5499 23.7322L89.3791 23.9789L89.3822 23.981L89.5499 23.7322ZM90.5993 24.8918C90.1193 24.8918 89.6924 24.8016 89.3135 24.6265L89.0618 25.1711C89.5281 25.3866 90.0423 25.4918 90.5993 25.4918V24.8918ZM89.3154 24.6273C88.9401 24.4507 88.6475 24.2002 88.4305 23.8748L87.9313 24.2076C88.2115 24.6279 88.5901 24.9491 89.0599 25.1702L89.3154 24.6273ZM88.4313 23.8759C88.2206 23.5568 88.1081 23.1623 88.1081 22.6776H87.5081C87.5081 23.2582 87.6441 23.7727 87.9306 24.2065L88.4313 23.8759ZM88.1081 22.6776C88.1081 22.2459 88.1933 21.9271 88.3384 21.6983L87.8317 21.377C87.6075 21.7306 87.5081 22.1717 87.5081 22.6776H88.1081ZM88.3393 21.6969C88.4961 21.4466 88.7043 21.2516 88.9681 21.1091L88.6829 20.5812C88.3287 20.7725 88.0433 21.0392 87.8308 21.3784L88.3393 21.6969ZM88.9681 21.1091C89.2503 20.9566 89.5645 20.8416 89.9124 20.7654L89.784 20.1792C89.3861 20.2664 89.0185 20.3999 88.6829 20.5812L88.9681 21.1091ZM89.9144 20.7649C90.2819 20.6817 90.651 20.6159 91.0217 20.5674L90.9439 19.9724C90.5546 20.0233 90.1673 20.0925 89.7819 20.1797L89.9144 20.7649ZM91.021 20.5674C91.517 20.5037 91.9173 20.4561 92.2228 20.4245L92.1611 19.8277C91.8486 19.86 91.4428 19.9083 90.9445 19.9723L91.021 20.5674ZM92.2258 20.4241C92.5485 20.3875 92.8263 20.3237 93.0233 20.2104L92.7242 19.6902C92.6372 19.7403 92.4604 19.7936 92.1581 19.828L92.2258 20.4241ZM93.0205 20.2119C93.2824 20.065 93.3922 19.8078 93.3922 19.5241H92.7922C92.7922 19.6453 92.7563 19.6722 92.727 19.6886L93.0205 20.2119ZM93.3922 19.5241V19.4815H92.7922V19.5241H93.3922ZM93.3922 19.4815C93.3922 18.9005 93.2318 18.4076 92.8741 18.0456L92.4473 18.4672C92.6649 18.6875 92.7922 19.0115 92.7922 19.4815H93.3922ZM92.8754 18.0469C92.5146 17.677 91.9914 17.5196 91.3663 17.5196V18.1196C91.8989 18.1196 92.2386 18.2534 92.446 18.4659L92.8754 18.0469ZM91.3663 17.5196C90.7255 17.5196 90.1822 17.6597 89.7716 17.9762L90.1379 18.4514C90.4091 18.2423 90.8068 18.1196 91.3663 18.1196V17.5196ZM89.7716 17.9762C89.4039 18.2596 89.1276 18.5757 88.9635 18.9291L89.5077 19.1817C89.6206 18.9385 89.8238 18.6935 90.1379 18.4514L89.7716 17.9762ZM89.3365 18.7729L88.1433 18.3467L87.9415 18.9118L89.1347 19.3379L89.3365 18.7729ZM88.3182 18.7474C88.5153 18.2875 88.7713 17.9448 89.0792 17.7046L88.7102 17.2315C88.3079 17.5453 87.9957 17.9767 87.7667 18.5111L88.3182 18.7474ZM89.0795 17.7043C89.4073 17.448 89.761 17.2717 90.1422 17.1724L89.991 16.5918C89.527 16.7127 89.0995 16.927 88.7099 17.2317L89.0795 17.7043ZM90.1439 17.172C90.5466 17.0646 90.9396 17.0116 91.3237 17.0116V16.4116C90.8839 16.4116 90.4389 16.4723 89.9893 16.5922L90.1439 17.172ZM91.3237 17.0116C91.5631 17.0116 91.8459 17.0409 92.1739 17.1024L92.2845 16.5127C91.9308 16.4463 91.6098 16.4116 91.3237 16.4116V17.0116ZM92.1774 17.103C92.4833 17.1566 92.7808 17.2689 93.071 17.443L93.3797 16.9285C93.0306 16.719 92.664 16.5792 92.281 16.512L92.1774 17.103ZM93.0722 17.4437C93.3418 17.6037 93.575 17.8501 93.7668 18.1986L94.2925 17.9093C94.0582 17.4837 93.7551 17.1513 93.3784 16.9277L93.0722 17.4437ZM93.7668 18.1986C93.9467 18.5254 94.0493 18.988 94.0493 19.6094H94.6493C94.6493 18.9311 94.5387 18.3567 94.2925 17.9093L93.7668 18.1986ZM94.0493 19.6094V25H94.6493V19.6094H94.0493ZM94.3493 24.7H93.0922V25.3H94.3493V24.7ZM93.3922 25V23.892H92.7922V25H93.3922ZM93.0922 23.592H93.0282V24.192H93.0922V23.592ZM92.7578 23.7622C92.6916 23.9001 92.5731 24.0634 92.3881 24.2518L92.8161 24.6722C93.0288 24.4558 93.1944 24.2391 93.2987 24.0219L92.7578 23.7622ZM92.3881 24.2518C92.2227 24.4201 91.9935 24.5725 91.6899 24.7031L91.9269 25.2543C92.2838 25.1008 92.5837 24.9088 92.8161 24.6722L92.3881 24.2518ZM91.6899 24.7031C91.4071 24.8247 91.0469 24.8918 90.5993 24.8918V25.4918C91.1033 25.4918 91.5492 25.4167 91.9269 25.2543L91.6899 24.7031ZM90.791 24.3625C91.3268 24.3625 91.8004 24.2572 92.1973 24.0298L91.899 23.5092C91.614 23.6725 91.2495 23.7625 90.791 23.7625V24.3625ZM92.1961 24.0305C92.5823 23.8115 92.8834 23.5222 93.0872 23.1604L92.5644 22.8659C92.4202 23.122 92.2029 23.3369 91.9001 23.5086L92.1961 24.0305ZM93.0859 23.1626C93.2884 22.8103 93.3922 22.4341 93.3922 22.0384H92.7922C92.7922 22.3244 92.7184 22.598 92.5657 22.8637L93.0859 23.1626ZM93.3922 22.0384V20.8878H92.7922V22.0384H93.3922ZM92.8617 20.6957C92.8724 20.6829 92.8707 20.6911 92.8301 20.7113C92.7927 20.7301 92.7362 20.7521 92.6559 20.7758L92.8252 21.3514C92.9261 21.3217 93.0187 21.2879 93.0985 21.248C93.1751 21.2097 93.2586 21.1566 93.3226 21.0798L92.8617 20.6957ZM92.6597 20.7747C92.495 20.8208 92.3 20.863 92.0734 20.9008L92.172 21.4927C92.4142 21.4523 92.6311 21.4058 92.8215 21.3525L92.6597 20.7747ZM92.0771 20.9002C91.8485 20.9354 91.6254 20.967 91.4078 20.9951L91.4846 21.5901C91.7073 21.5614 91.9352 21.5291 92.1683 21.4932L92.0771 20.9002ZM91.412 20.9946C91.1946 21.0195 91.017 21.041 90.8797 21.0591L90.958 21.654C91.0906 21.6365 91.2646 21.6154 91.4804 21.5907L91.412 20.9946ZM90.8801 21.0591C90.5358 21.104 90.2111 21.1773 89.9067 21.28L90.0986 21.8485C90.3624 21.7595 90.6485 21.6943 90.9577 21.654L90.8801 21.0591ZM89.9089 21.2793C89.5874 21.3851 89.3141 21.5505 89.1006 21.7814L89.5411 22.1887C89.6756 22.0433 89.8569 21.9281 90.0965 21.8492L89.9089 21.2793ZM89.1004 21.7816C88.866 22.0355 88.7652 22.3677 88.7652 22.7415H89.3652C89.3652 22.476 89.4348 22.3039 89.5413 22.1886L89.1004 21.7816ZM88.7652 22.7415C88.7652 23.2639 88.9651 23.6922 89.3791 23.9789L89.7207 23.4856C89.4884 23.3248 89.3652 23.0926 89.3652 22.7415H88.7652ZM89.3822 23.981C89.7704 24.2426 90.2467 24.3625 90.791 24.3625V23.7625C90.3339 23.7625 89.9828 23.6622 89.7175 23.4835L89.3822 23.981ZM96.6437 25H96.3437V25.3H96.6437V25ZM96.6437 16.8182V16.5182H96.3437V16.8182H96.6437ZM97.8582 16.8182H98.1582V16.5182H97.8582V16.8182ZM97.8582 18.054H97.5582V18.354H97.8582V18.054ZM97.9434 18.054V18.354H98.1526L98.225 18.1577L97.9434 18.054ZM98.7531 17.0685L98.5904 16.8165L98.7531 17.0685ZM100.735 16.7116H101.035V16.4402L100.764 16.4131L100.735 16.7116ZM100.735 17.9901L100.662 18.2811L101.035 18.3743V17.9901H100.735ZM100.442 17.9421L100.392 18.2381L100.4 18.2392L100.442 17.9421ZM98.9023 18.1552L99.0425 18.4204L99.0436 18.4198L98.9023 18.1552ZM98.1672 18.837L97.9124 18.6786L97.9119 18.6794L98.1672 18.837ZM97.9008 25V25.3H98.2008V25H97.9008ZM96.9437 25V16.8182H96.3437V25H96.9437ZM96.6437 17.1182H97.8582V16.5182H96.6437V17.1182ZM97.5582 16.8182V18.054H98.1582V16.8182H97.5582ZM97.8582 18.354H97.9434V17.754H97.8582V18.354ZM98.225 18.1577C98.3498 17.8187 98.5753 17.5404 98.9158 17.3206L98.5904 16.8165C98.1497 17.101 97.8354 17.4796 97.6619 17.9503L98.225 18.1577ZM98.9158 17.3206C99.2553 17.1015 99.6385 16.9903 100.074 16.9903V16.3903C99.5296 16.3903 99.0322 16.5313 98.5904 16.8165L98.9158 17.3206ZM100.074 16.9903C100.163 16.9903 100.276 16.9921 100.413 16.9956L100.428 16.3958C100.288 16.3922 100.17 16.3903 100.074 16.3903V16.9903ZM100.413 16.9956C100.549 16.9991 100.645 17.0042 100.705 17.0102L100.764 16.4131C100.682 16.4049 100.568 16.3994 100.428 16.3958L100.413 16.9956ZM100.435 16.7116V17.9901H101.035V16.7116H100.435ZM100.807 17.699C100.746 17.6837 100.631 17.6657 100.483 17.645L100.4 18.2392C100.557 18.2612 100.638 18.2751 100.662 18.2811L100.807 17.699ZM100.491 17.6462C100.324 17.6184 100.149 17.6048 99.9676 17.6048V18.2048C100.12 18.2048 100.261 18.2162 100.392 18.238L100.491 17.6462ZM99.9676 17.6048C99.5267 17.6048 99.122 17.6977 98.7609 17.8906L99.0436 18.4198C99.3075 18.2789 99.613 18.2048 99.9676 18.2048V17.6048ZM98.762 17.89C98.4071 18.0777 98.1221 18.3414 97.9124 18.6786L98.4219 18.9954C98.5744 18.7502 98.7795 18.5594 99.0425 18.4204L98.762 17.89ZM97.9119 18.6794C97.7024 19.0188 97.6008 19.4028 97.6008 19.8224H98.2008C98.2008 19.5034 98.2768 19.2305 98.4225 18.9946L97.9119 18.6794ZM97.6008 19.8224V25H98.2008V19.8224H97.6008ZM97.9008 24.7H96.6437V25.3H97.9008V24.7ZM106.296 16.8182H106.596V16.5182H106.296V16.8182ZM106.296 17.8835V18.1835H106.596V17.8835H106.296ZM102.056 17.8835H101.756V18.1835H102.056V17.8835ZM102.056 16.8182V16.5182H101.756V16.8182H102.056ZM103.291 14.858V14.558H102.991V14.858H103.291ZM104.549 14.858H104.849V14.558H104.549V14.858ZM104.703 23.4553L104.443 23.6058L104.447 23.6119L104.703 23.4553ZM105.108 23.8068L105.004 24.0883L105.011 24.0908L105.108 23.8068ZM105.976 23.8707L106.024 24.1672L106.035 24.1649L105.976 23.8707ZM106.189 23.8281L106.482 23.7619L106.417 23.4766L106.13 23.534L106.189 23.8281ZM106.445 24.9574L106.55 25.2383L106.795 25.1464L106.737 24.8911L106.445 24.9574ZM106.088 25.0533L106.027 24.7596L106.02 24.7611L106.088 25.0533ZM104.463 24.8775L104.34 25.1508L104.341 25.1513L104.463 24.8775ZM103.622 24.1797L103.376 24.3525L103.378 24.3543L103.622 24.1797ZM105.996 16.8182V17.8835H106.596V16.8182H105.996ZM106.296 17.5835H102.056V18.1835H106.296V17.5835ZM102.356 17.8835V16.8182H101.756V17.8835H102.356ZM102.056 17.1182H106.296V16.5182H102.056V17.1182ZM103.291 15.158H104.549V14.558H103.291V15.158ZM104.249 14.858V22.6562H104.849V14.858H104.249ZM104.249 22.6562C104.249 23.0305 104.301 23.3602 104.444 23.6058L104.963 23.3047C104.899 23.1952 104.849 22.9922 104.849 22.6562H104.249ZM104.447 23.6119C104.583 23.8331 104.767 24.0006 105.004 24.0882L105.212 23.5254C105.122 23.4923 105.037 23.4254 104.959 23.2986L104.447 23.6119ZM105.011 24.0908C105.211 24.1587 105.419 24.192 105.635 24.192V23.592C105.482 23.592 105.339 23.5685 105.205 23.5228L105.011 24.0908ZM105.635 24.192C105.782 24.192 105.913 24.1846 106.024 24.167L105.929 23.5745C105.862 23.5852 105.765 23.592 105.635 23.592V24.192ZM106.035 24.1649C106.124 24.1472 106.195 24.133 106.248 24.1223L106.13 23.534C106.077 23.5446 106.006 23.5588 105.917 23.5766L106.035 24.1649ZM105.897 23.8944L106.152 25.0236L106.737 24.8911L106.482 23.7619L105.897 23.8944ZM106.34 24.6765C106.275 24.7006 106.173 24.7289 106.027 24.7596L106.149 25.3469C106.308 25.3137 106.444 25.2781 106.55 25.2383L106.34 24.6765ZM106.02 24.7611C105.898 24.7895 105.729 24.8065 105.507 24.8065V25.4065C105.755 25.4065 105.973 25.388 106.156 25.3455L106.02 24.7611ZM105.507 24.8065C105.197 24.8065 104.89 24.74 104.586 24.6037L104.341 25.1513C104.718 25.3203 105.108 25.4065 105.507 25.4065V24.8065ZM104.587 24.6042C104.3 24.4741 104.06 24.2764 103.866 24.0051L103.378 24.3543C103.631 24.708 103.952 24.9755 104.34 25.1508L104.587 24.6042ZM103.867 24.0069C103.69 23.7562 103.591 23.4264 103.591 22.9972H102.991C102.991 23.5196 103.113 23.9782 103.376 24.3525L103.867 24.0069ZM103.591 22.9972V14.858H102.991V22.9972H103.591ZM108.187 25H107.887V25.3H108.187V25ZM108.187 16.8182V16.5182H107.887V16.8182H108.187ZM109.444 16.8182H109.744V16.5182H109.444V16.8182ZM109.444 25V25.3H109.744V25H109.444ZM108.192 15.2042L107.984 15.4207L107.987 15.4228L108.192 15.2042ZM108.192 14.0004L107.987 13.7818L107.984 13.7839L108.192 14.0004ZM109.454 14.0004L109.247 14.2169L109.249 14.2189L109.454 14.0004ZM109.454 15.2042L109.249 14.9856L109.247 14.9877L109.454 15.2042ZM108.487 25V16.8182H107.887V25H108.487ZM108.187 17.1182H109.444V16.5182H108.187V17.1182ZM109.144 16.8182V25H109.744V16.8182H109.144ZM109.444 24.7H108.187V25.3H109.444V24.7ZM108.826 15.1545C108.657 15.1545 108.519 15.0999 108.398 14.9856L107.987 15.4228C108.22 15.6423 108.505 15.7545 108.826 15.7545V15.1545ZM108.4 14.9877C108.283 14.8755 108.231 14.7523 108.231 14.6023H107.631C107.631 14.921 107.753 15.199 107.984 15.4207L108.4 14.9877ZM108.231 14.6023C108.231 14.4522 108.283 14.329 108.4 14.2169L107.984 13.7839C107.753 14.0055 107.631 14.2836 107.631 14.6023H108.231ZM108.397 14.2189C108.519 14.1047 108.657 14.05 108.826 14.05V13.45C108.505 13.45 108.22 13.5622 107.987 13.7818L108.397 14.2189ZM108.826 14.05C108.995 14.05 109.13 14.1045 109.247 14.2169L109.662 13.7839C109.431 13.5624 109.147 13.45 108.826 13.45V14.05ZM109.249 14.2189C109.369 14.3317 109.421 14.4543 109.421 14.6023H110.021C110.021 14.2815 109.895 14.0028 109.66 13.7818L109.249 14.2189ZM109.421 14.6023C109.421 14.7502 109.369 14.8729 109.249 14.9856L109.66 15.4228C109.895 15.2017 110.021 14.9231 110.021 14.6023H109.421ZM109.247 14.9877C109.13 15.1 108.995 15.1545 108.826 15.1545V15.7545C109.147 15.7545 109.431 15.6421 109.662 15.4207L109.247 14.9877ZM111.746 25H111.446V25.3H111.746V25ZM111.746 16.8182V16.5182H111.446V16.8182H111.746ZM112.961 16.8182H113.261V16.5182H112.961V16.8182ZM112.961 18.054H112.661V18.354H112.961V18.054ZM113.046 18.054V18.354H113.255L113.327 18.1577L113.046 18.054ZM113.856 17.0685L113.693 16.8165L113.856 17.0685ZM115.837 16.7116H116.137V16.4402L115.867 16.4131L115.837 16.7116ZM115.837 17.9901L115.764 18.2811L116.137 18.3743V17.9901H115.837ZM115.544 17.9421L115.495 18.2381L115.503 18.2392L115.544 17.9421ZM114.005 18.1552L114.145 18.4204L114.146 18.4198L114.005 18.1552ZM113.27 18.837L113.015 18.6786L113.014 18.6794L113.27 18.837ZM113.003 25V25.3H113.303V25H113.003ZM112.046 25V16.8182H111.446V25H112.046ZM111.746 17.1182H112.961V16.5182H111.746V17.1182ZM112.661 16.8182V18.054H113.261V16.8182H112.661ZM112.961 18.354H113.046V17.754H112.961V18.354ZM113.327 18.1577C113.452 17.8187 113.678 17.5404 114.018 17.3206L113.693 16.8165C113.252 17.101 112.938 17.4796 112.764 17.9503L113.327 18.1577ZM114.018 17.3206C114.358 17.1015 114.741 16.9903 115.177 16.9903V16.3903C114.632 16.3903 114.135 16.5313 113.693 16.8165L114.018 17.3206ZM115.177 16.9903C115.266 16.9903 115.378 16.9921 115.515 16.9956L115.531 16.3958C115.391 16.3922 115.272 16.3903 115.177 16.3903V16.9903ZM115.515 16.9956C115.652 16.9991 115.748 17.0042 115.807 17.0102L115.867 16.4131C115.785 16.4049 115.671 16.3994 115.531 16.3958L115.515 16.9956ZM115.537 16.7116V17.9901H116.137V16.7116H115.537ZM115.91 17.699C115.849 17.6837 115.734 17.6657 115.586 17.645L115.503 18.2392C115.66 18.2612 115.74 18.2751 115.764 18.2811L115.91 17.699ZM115.594 17.6462C115.427 17.6184 115.252 17.6048 115.07 17.6048V18.2048C115.222 18.2048 115.364 18.2162 115.495 18.238L115.594 17.6462ZM115.07 17.6048C114.629 17.6048 114.225 17.6977 113.863 17.8906L114.146 18.4198C114.41 18.2789 114.716 18.2048 115.07 18.2048V17.6048ZM113.865 17.89C113.51 18.0777 113.225 18.3414 113.015 18.6786L113.524 18.9954C113.677 18.7502 113.882 18.5594 114.145 18.4204L113.865 17.89ZM113.014 18.6794C112.805 19.0188 112.703 19.4028 112.703 19.8224H113.303C113.303 19.5034 113.379 19.2305 113.525 18.9946L113.014 18.6794ZM112.703 19.8224V25H113.303V19.8224H112.703ZM113.003 24.7H111.746V25.3H113.003V24.7Z" fill="white" mask="url(#path-2-outside-1_168_1102)"/>
<path d="M28.6364 27V25.2222C28.6364 24.2792 28.2532 23.3749 27.5713 22.7081C26.8893 22.0413 25.9644 21.6667 25 21.6667H18.6364C17.6719 21.6667 16.747 22.0413 16.0651 22.7081C15.3831 23.3749 15 24.2792 15 25.2222V27M32.2727 15.4444V20.7778M35 18.1111H29.5455M25.4545 14.5556C25.4545 16.5192 23.8265 18.1111 21.8182 18.1111C19.8099 18.1111 18.1818 16.5192 18.1818 14.5556C18.1818 12.5919 19.8099 11 21.8182 11C23.8265 11 25.4545 12.5919 25.4545 14.5556Z" stroke="white" stroke-width="2" stroke-linecap="round" stroke-linejoin="round"/>
</svg>
