<svg width="24" height="25" viewBox="0 0 24 25" fill="none" xmlns="http://www.w3.org/2000/svg">
<circle cx="12" cy="12" r="12" fill="#5A5A5A"/>
<path d="M10.7216 15.9091V15.8239C10.7311 14.9195 10.8258 14.1998 11.0057 13.6648C11.1856 13.1297 11.4413 12.6965 11.7727 12.3651C12.1042 12.0336 12.5019 11.7282 12.9659 11.4489C13.2453 11.2784 13.4962 11.0772 13.7188 10.8452C13.9413 10.6084 14.1165 10.3362 14.2443 10.0284C14.3769 9.72064 14.4432 9.37973 14.4432 9.00568C14.4432 8.54167 14.3343 8.1392 14.1165 7.7983C13.8987 7.45739 13.6075 7.1946 13.2429 7.00994C12.8783 6.82528 12.4735 6.73295 12.0284 6.73295C11.6402 6.73295 11.2661 6.81345 10.9062 6.97443C10.5464 7.13542 10.2457 7.38873 10.0043 7.73438C9.76278 8.08002 9.62311 8.5322 9.58523 9.09091H7.79545C7.83333 8.28598 8.04167 7.59706 8.42045 7.02415C8.80398 6.45123 9.30824 6.01326 9.93324 5.71023C10.563 5.4072 11.2614 5.25568 12.0284 5.25568C12.8617 5.25568 13.5862 5.4214 14.2017 5.75284C14.822 6.08428 15.3002 6.53883 15.6364 7.11648C15.9773 7.69413 16.1477 8.35227 16.1477 9.09091C16.1477 9.61174 16.0672 10.0829 15.9062 10.5043C15.75 10.9257 15.5227 11.3021 15.2244 11.6335C14.9309 11.965 14.5758 12.2585 14.1591 12.5142C13.7424 12.7746 13.4086 13.0492 13.1577 13.3381C12.9067 13.6222 12.7244 13.9607 12.6108 14.3537C12.4972 14.7467 12.4356 15.2367 12.4261 15.8239V15.9091H10.7216ZM11.6307 20.1136C11.2803 20.1136 10.9796 19.9882 10.7287 19.7372C10.4777 19.4863 10.3523 19.1856 10.3523 18.8352C10.3523 18.4848 10.4777 18.1842 10.7287 17.9332C10.9796 17.6823 11.2803 17.5568 11.6307 17.5568C11.9811 17.5568 12.2817 17.6823 12.5327 17.9332C12.7836 18.1842 12.9091 18.4848 12.9091 18.8352C12.9091 19.0672 12.8499 19.2803 12.7315 19.4744C12.6179 19.6686 12.464 19.8248 12.2699 19.9432C12.0805 20.0568 11.8674 20.1136 11.6307 20.1136Z" fill="#A3C8A5"/>
</svg>
