<svg width="31" height="31" viewBox="0 0 31 31" fill="none" xmlns="http://www.w3.org/2000/svg">
<g clip-path="url(#clip0_103_108)">
<path d="M20.0208 18.0833H19.0004L18.6388 17.7346C20.1888 15.9263 20.9896 13.4592 20.5504 10.8371C19.9433 7.24627 16.9467 4.37876 13.33 3.9396C7.86626 3.26793 3.26793 7.86626 3.9396 13.33C4.37876 16.9467 7.24626 19.9433 10.8371 20.5504C13.4592 20.9896 15.9263 20.1888 17.7346 18.6388L18.0833 19.0004V20.0208L23.5729 25.5104C24.1025 26.04 24.9679 26.04 25.4975 25.5104C26.0271 24.9808 26.0271 24.1154 25.4975 23.5858L20.0208 18.0833ZM12.2708 18.0833C9.0546 18.0833 6.45835 15.4871 6.45835 12.2708C6.45835 9.0546 9.0546 6.45835 12.2708 6.45835C15.4871 6.45835 18.0833 9.0546 18.0833 12.2708C18.0833 15.4871 15.4871 18.0833 12.2708 18.0833Z" fill="#A3C8A5"/>
</g>
<defs>
<clipPath id="clip0_103_108">
<rect width="31" height="31" fill="white"/>
</clipPath>
</defs>
</svg>
