<svg width="137" height="26" viewBox="0 0 137 26" fill="none" xmlns="http://www.w3.org/2000/svg">
<rect width="137" height="26" rx="5" fill="#90AF92"/>
<rect x="12" y="5" width="4.90909" height="16" fill="white"/>
<rect x="18.5455" y="5" width="4.90909" height="6.4" fill="white"/>
<rect x="25.0909" y="5" width="4.90909" height="10.1333" fill="white"/>
<mask id="path-5-outside-1_126_550" maskUnits="userSpaceOnUse" x="44" y="7" width="53" height="13" fill="black">
<rect fill="white" x="44" y="7" width="53" height="13"/>
<path d="M44.7244 9.26278V8.09091H52.9062V9.26278H49.4759V19H48.1548V9.26278H44.7244ZM56.069 19.1918C55.5505 19.1918 55.08 19.0941 54.6574 18.8988C54.2348 18.6999 53.8992 18.4141 53.6507 18.0412C53.4021 17.6648 53.2778 17.2102 53.2778 16.6776C53.2778 16.2088 53.3701 15.8288 53.5548 15.5376C53.7394 15.2429 53.9862 15.0121 54.2952 14.8452C54.6041 14.6783 54.945 14.554 55.3179 14.4723C55.6943 14.3871 56.0725 14.3196 56.4525 14.2699C56.9497 14.206 57.3527 14.158 57.6617 14.1261C57.9742 14.0906 58.2014 14.032 58.3435 13.9503C58.4891 13.8686 58.5619 13.7266 58.5619 13.5241V13.4815C58.5619 12.956 58.4181 12.5476 58.1304 12.2564C57.8463 11.9652 57.4149 11.8196 56.836 11.8196C56.2359 11.8196 55.7654 11.951 55.4244 12.2138C55.0835 12.4766 54.8438 12.7571 54.7053 13.0554L53.5122 12.6293C53.7252 12.1321 54.0093 11.745 54.3644 11.468C54.7231 11.1875 55.1137 10.9922 55.5363 10.8821C55.9624 10.7685 56.3815 10.7116 56.7934 10.7116C57.0562 10.7116 57.358 10.7436 57.699 10.8075C58.0434 10.8679 58.3754 10.994 58.695 11.1857C59.0182 11.3775 59.2863 11.6669 59.4994 12.054C59.7124 12.4411 59.819 12.9595 59.819 13.6094V19H58.5619V17.892H58.498C58.4127 18.0696 58.2707 18.2596 58.0718 18.462C57.873 18.6644 57.6084 18.8366 57.2781 18.9787C56.9479 19.1207 56.5448 19.1918 56.069 19.1918ZM56.2607 18.0625C56.7579 18.0625 57.1769 17.9648 57.5178 17.7695C57.8623 17.5742 58.1215 17.3221 58.2955 17.0131C58.4731 16.7042 58.5619 16.3793 58.5619 16.0384V14.8878C58.5086 14.9517 58.3914 15.0103 58.2103 15.0636C58.0328 15.1133 57.8268 15.1577 57.5924 15.1967C57.3616 15.2322 57.1361 15.2642 56.9159 15.2926C56.6993 15.3175 56.5235 15.3388 56.3886 15.3565C56.0619 15.3991 55.7565 15.4684 55.4724 15.5643C55.1919 15.6566 54.9646 15.7969 54.7906 15.9851C54.6201 16.1697 54.5349 16.4219 54.5349 16.7415C54.5349 17.1783 54.6965 17.5085 55.0196 17.7322C55.3463 17.9524 55.76 18.0625 56.2607 18.0625ZM62.2839 19V8.09091H63.541V12.1179H63.6475C63.7399 11.9759 63.8677 11.7947 64.0311 11.5746C64.198 11.3509 64.4359 11.152 64.7449 10.978C65.0574 10.8004 65.4799 10.7116 66.0126 10.7116C66.7015 10.7116 67.3088 10.8839 67.8343 11.2283C68.3599 11.5728 68.7701 12.0611 69.0648 12.6932C69.3596 13.3253 69.5069 14.071 69.5069 14.9304C69.5069 15.7969 69.3596 16.5479 69.0648 17.1836C68.7701 17.8157 68.3617 18.3058 67.8397 18.6538C67.3176 18.9982 66.7157 19.1705 66.0339 19.1705C65.5083 19.1705 65.0875 19.0835 64.7715 18.9094C64.4554 18.7319 64.2122 18.5312 64.0417 18.3075C63.8713 18.0803 63.7399 17.892 63.6475 17.7429H63.4984V19H62.2839ZM63.5197 14.9091C63.5197 15.527 63.6103 16.0721 63.7914 16.5444C63.9725 17.0131 64.237 17.3807 64.585 17.647C64.9331 17.9098 65.3592 18.0412 65.8635 18.0412C66.389 18.0412 66.8276 17.9027 67.1792 17.6257C67.5343 17.3452 67.8006 16.9687 67.9782 16.4964C68.1593 16.0206 68.2498 15.4915 68.2498 14.9091C68.2498 14.3338 68.161 13.8153 67.9835 13.3537C67.8095 12.8885 67.5449 12.521 67.1898 12.2511C66.8382 11.9776 66.3961 11.8409 65.8635 11.8409C65.3521 11.8409 64.9224 11.9705 64.5744 12.2298C64.2264 12.4854 63.9636 12.8441 63.786 13.3058C63.6085 13.7638 63.5197 14.2983 63.5197 14.9091ZM72.687 8.09091V19H71.4299V8.09091H72.687ZM78.4198 19.1705C77.6315 19.1705 76.9514 18.9964 76.3797 18.6484C75.8115 18.2969 75.373 17.8068 75.064 17.1783C74.7586 16.5462 74.6059 15.8111 74.6059 14.973C74.6059 14.1349 74.7586 13.3963 75.064 12.7571C75.373 12.1143 75.8026 11.6136 76.3531 11.255C76.907 10.8928 77.5534 10.7116 78.292 10.7116C78.7181 10.7116 79.1389 10.7827 79.5544 10.9247C79.9699 11.0668 80.3481 11.2976 80.689 11.6172C81.0299 11.9332 81.3016 12.3523 81.504 12.8743C81.7064 13.3963 81.8076 14.0391 81.8076 14.8026V15.3352H75.5008V14.2486H80.5292C80.5292 13.7869 80.4369 13.375 80.2522 13.0128C80.0711 12.6506 79.8119 12.3647 79.4745 12.1552C79.1407 11.9457 78.7465 11.8409 78.292 11.8409C77.7913 11.8409 77.358 11.9652 76.9923 12.2138C76.6301 12.4588 76.3513 12.7784 76.156 13.1726C75.9607 13.5668 75.863 13.9893 75.863 14.4403V15.1648C75.863 15.7827 75.9695 16.3065 76.1826 16.7362C76.3992 17.1623 76.6993 17.4872 77.0828 17.7109C77.4664 17.9311 77.912 18.0412 78.4198 18.0412C78.7501 18.0412 79.0484 17.995 79.3147 17.9027C79.5846 17.8068 79.8172 17.6648 80.0125 17.4766C80.2078 17.2848 80.3588 17.0469 80.4653 16.7628L81.6798 17.1037C81.5519 17.5156 81.3371 17.8778 81.0352 18.1903C80.7334 18.4993 80.3605 18.7408 79.9166 18.9148C79.4727 19.0852 78.9738 19.1705 78.4198 19.1705ZM83.7199 19V10.8182H84.9344V12.054H85.0196C85.1688 11.6491 85.4387 11.3207 85.8293 11.0685C86.2199 10.8164 86.6602 10.6903 87.1503 10.6903C87.2426 10.6903 87.358 10.6921 87.4965 10.6957C87.635 10.6992 87.7398 10.7045 87.8108 10.7116V11.9901C87.7682 11.9794 87.6705 11.9634 87.5178 11.9421C87.3687 11.9173 87.2107 11.9048 87.0438 11.9048C86.646 11.9048 86.2909 11.9883 85.9784 12.1552C85.6695 12.3185 85.4244 12.5458 85.2433 12.837C85.0658 13.1246 84.977 13.4531 84.977 13.8224V19H83.7199ZM92.3758 19.1705C91.6372 19.1705 90.9891 18.9947 90.4316 18.6431C89.8776 18.2915 89.4443 17.7997 89.1318 17.1676C88.8229 16.5355 88.6684 15.7969 88.6684 14.9517C88.6684 14.0994 88.8229 13.3555 89.1318 12.7198C89.4443 12.0842 89.8776 11.5906 90.4316 11.239C90.9891 10.8874 91.6372 10.7116 92.3758 10.7116C93.1144 10.7116 93.7607 10.8874 94.3147 11.239C94.8722 11.5906 95.3055 12.0842 95.6144 12.7198C95.9269 13.3555 96.0832 14.0994 96.0832 14.9517C96.0832 15.7969 95.9269 16.5355 95.6144 17.1676C95.3055 17.7997 94.8722 18.2915 94.3147 18.6431C93.7607 18.9947 93.1144 19.1705 92.3758 19.1705ZM92.3758 18.0412C92.9369 18.0412 93.3985 17.8974 93.7607 17.6097C94.123 17.3221 94.3911 16.9439 94.5651 16.4751C94.7391 16.0064 94.8261 15.4986 94.8261 14.9517C94.8261 14.4048 94.7391 13.8952 94.5651 13.4229C94.3911 12.9506 94.123 12.5689 93.7607 12.2777C93.3985 11.9865 92.9369 11.8409 92.3758 11.8409C91.8147 11.8409 91.3531 11.9865 90.9909 12.2777C90.6286 12.5689 90.3605 12.9506 90.1865 13.4229C90.0125 13.8952 89.9255 14.4048 89.9255 14.9517C89.9255 15.4986 90.0125 16.0064 90.1865 16.4751C90.3605 16.9439 90.6286 17.3221 90.9909 17.6097C91.3531 17.8974 91.8147 18.0412 92.3758 18.0412Z"/>
</mask>
<path d="M44.7244 9.26278V8.09091H52.9062V9.26278H49.4759V19H48.1548V9.26278H44.7244ZM56.069 19.1918C55.5505 19.1918 55.08 19.0941 54.6574 18.8988C54.2348 18.6999 53.8992 18.4141 53.6507 18.0412C53.4021 17.6648 53.2778 17.2102 53.2778 16.6776C53.2778 16.2088 53.3701 15.8288 53.5548 15.5376C53.7394 15.2429 53.9862 15.0121 54.2952 14.8452C54.6041 14.6783 54.945 14.554 55.3179 14.4723C55.6943 14.3871 56.0725 14.3196 56.4525 14.2699C56.9497 14.206 57.3527 14.158 57.6617 14.1261C57.9742 14.0906 58.2014 14.032 58.3435 13.9503C58.4891 13.8686 58.5619 13.7266 58.5619 13.5241V13.4815C58.5619 12.956 58.4181 12.5476 58.1304 12.2564C57.8463 11.9652 57.4149 11.8196 56.836 11.8196C56.2359 11.8196 55.7654 11.951 55.4244 12.2138C55.0835 12.4766 54.8438 12.7571 54.7053 13.0554L53.5122 12.6293C53.7252 12.1321 54.0093 11.745 54.3644 11.468C54.7231 11.1875 55.1137 10.9922 55.5363 10.8821C55.9624 10.7685 56.3815 10.7116 56.7934 10.7116C57.0562 10.7116 57.358 10.7436 57.699 10.8075C58.0434 10.8679 58.3754 10.994 58.695 11.1857C59.0182 11.3775 59.2863 11.6669 59.4994 12.054C59.7124 12.4411 59.819 12.9595 59.819 13.6094V19H58.5619V17.892H58.498C58.4127 18.0696 58.2707 18.2596 58.0718 18.462C57.873 18.6644 57.6084 18.8366 57.2781 18.9787C56.9479 19.1207 56.5448 19.1918 56.069 19.1918ZM56.2607 18.0625C56.7579 18.0625 57.1769 17.9648 57.5178 17.7695C57.8623 17.5742 58.1215 17.3221 58.2955 17.0131C58.4731 16.7042 58.5619 16.3793 58.5619 16.0384V14.8878C58.5086 14.9517 58.3914 15.0103 58.2103 15.0636C58.0328 15.1133 57.8268 15.1577 57.5924 15.1967C57.3616 15.2322 57.1361 15.2642 56.9159 15.2926C56.6993 15.3175 56.5235 15.3388 56.3886 15.3565C56.0619 15.3991 55.7565 15.4684 55.4724 15.5643C55.1919 15.6566 54.9646 15.7969 54.7906 15.9851C54.6201 16.1697 54.5349 16.4219 54.5349 16.7415C54.5349 17.1783 54.6965 17.5085 55.0196 17.7322C55.3463 17.9524 55.76 18.0625 56.2607 18.0625ZM62.2839 19V8.09091H63.541V12.1179H63.6475C63.7399 11.9759 63.8677 11.7947 64.0311 11.5746C64.198 11.3509 64.4359 11.152 64.7449 10.978C65.0574 10.8004 65.4799 10.7116 66.0126 10.7116C66.7015 10.7116 67.3088 10.8839 67.8343 11.2283C68.3599 11.5728 68.7701 12.0611 69.0648 12.6932C69.3596 13.3253 69.5069 14.071 69.5069 14.9304C69.5069 15.7969 69.3596 16.5479 69.0648 17.1836C68.7701 17.8157 68.3617 18.3058 67.8397 18.6538C67.3176 18.9982 66.7157 19.1705 66.0339 19.1705C65.5083 19.1705 65.0875 19.0835 64.7715 18.9094C64.4554 18.7319 64.2122 18.5312 64.0417 18.3075C63.8713 18.0803 63.7399 17.892 63.6475 17.7429H63.4984V19H62.2839ZM63.5197 14.9091C63.5197 15.527 63.6103 16.0721 63.7914 16.5444C63.9725 17.0131 64.237 17.3807 64.585 17.647C64.9331 17.9098 65.3592 18.0412 65.8635 18.0412C66.389 18.0412 66.8276 17.9027 67.1792 17.6257C67.5343 17.3452 67.8006 16.9687 67.9782 16.4964C68.1593 16.0206 68.2498 15.4915 68.2498 14.9091C68.2498 14.3338 68.161 13.8153 67.9835 13.3537C67.8095 12.8885 67.5449 12.521 67.1898 12.2511C66.8382 11.9776 66.3961 11.8409 65.8635 11.8409C65.3521 11.8409 64.9224 11.9705 64.5744 12.2298C64.2264 12.4854 63.9636 12.8441 63.786 13.3058C63.6085 13.7638 63.5197 14.2983 63.5197 14.9091ZM72.687 8.09091V19H71.4299V8.09091H72.687ZM78.4198 19.1705C77.6315 19.1705 76.9514 18.9964 76.3797 18.6484C75.8115 18.2969 75.373 17.8068 75.064 17.1783C74.7586 16.5462 74.6059 15.8111 74.6059 14.973C74.6059 14.1349 74.7586 13.3963 75.064 12.7571C75.373 12.1143 75.8026 11.6136 76.3531 11.255C76.907 10.8928 77.5534 10.7116 78.292 10.7116C78.7181 10.7116 79.1389 10.7827 79.5544 10.9247C79.9699 11.0668 80.3481 11.2976 80.689 11.6172C81.0299 11.9332 81.3016 12.3523 81.504 12.8743C81.7064 13.3963 81.8076 14.0391 81.8076 14.8026V15.3352H75.5008V14.2486H80.5292C80.5292 13.7869 80.4369 13.375 80.2522 13.0128C80.0711 12.6506 79.8119 12.3647 79.4745 12.1552C79.1407 11.9457 78.7465 11.8409 78.292 11.8409C77.7913 11.8409 77.358 11.9652 76.9923 12.2138C76.6301 12.4588 76.3513 12.7784 76.156 13.1726C75.9607 13.5668 75.863 13.9893 75.863 14.4403V15.1648C75.863 15.7827 75.9695 16.3065 76.1826 16.7362C76.3992 17.1623 76.6993 17.4872 77.0828 17.7109C77.4664 17.9311 77.912 18.0412 78.4198 18.0412C78.7501 18.0412 79.0484 17.995 79.3147 17.9027C79.5846 17.8068 79.8172 17.6648 80.0125 17.4766C80.2078 17.2848 80.3588 17.0469 80.4653 16.7628L81.6798 17.1037C81.5519 17.5156 81.3371 17.8778 81.0352 18.1903C80.7334 18.4993 80.3605 18.7408 79.9166 18.9148C79.4727 19.0852 78.9738 19.1705 78.4198 19.1705ZM83.7199 19V10.8182H84.9344V12.054H85.0196C85.1688 11.6491 85.4387 11.3207 85.8293 11.0685C86.2199 10.8164 86.6602 10.6903 87.1503 10.6903C87.2426 10.6903 87.358 10.6921 87.4965 10.6957C87.635 10.6992 87.7398 10.7045 87.8108 10.7116V11.9901C87.7682 11.9794 87.6705 11.9634 87.5178 11.9421C87.3687 11.9173 87.2107 11.9048 87.0438 11.9048C86.646 11.9048 86.2909 11.9883 85.9784 12.1552C85.6695 12.3185 85.4244 12.5458 85.2433 12.837C85.0658 13.1246 84.977 13.4531 84.977 13.8224V19H83.7199ZM92.3758 19.1705C91.6372 19.1705 90.9891 18.9947 90.4316 18.6431C89.8776 18.2915 89.4443 17.7997 89.1318 17.1676C88.8229 16.5355 88.6684 15.7969 88.6684 14.9517C88.6684 14.0994 88.8229 13.3555 89.1318 12.7198C89.4443 12.0842 89.8776 11.5906 90.4316 11.239C90.9891 10.8874 91.6372 10.7116 92.3758 10.7116C93.1144 10.7116 93.7607 10.8874 94.3147 11.239C94.8722 11.5906 95.3055 12.0842 95.6144 12.7198C95.9269 13.3555 96.0832 14.0994 96.0832 14.9517C96.0832 15.7969 95.9269 16.5355 95.6144 17.1676C95.3055 17.7997 94.8722 18.2915 94.3147 18.6431C93.7607 18.9947 93.1144 19.1705 92.3758 19.1705ZM92.3758 18.0412C92.9369 18.0412 93.3985 17.8974 93.7607 17.6097C94.123 17.3221 94.3911 16.9439 94.5651 16.4751C94.7391 16.0064 94.8261 15.4986 94.8261 14.9517C94.8261 14.4048 94.7391 13.8952 94.5651 13.4229C94.3911 12.9506 94.123 12.5689 93.7607 12.2777C93.3985 11.9865 92.9369 11.8409 92.3758 11.8409C91.8147 11.8409 91.3531 11.9865 90.9909 12.2777C90.6286 12.5689 90.3605 12.9506 90.1865 13.4229C90.0125 13.8952 89.9255 14.4048 89.9255 14.9517C89.9255 15.4986 90.0125 16.0064 90.1865 16.4751C90.3605 16.9439 90.6286 17.3221 90.9909 17.6097C91.3531 17.8974 91.8147 18.0412 92.3758 18.0412Z" fill="white"/>
<path d="M44.7244 9.26278H44.5244V9.46278H44.7244V9.26278ZM44.7244 8.09091V7.89091H44.5244V8.09091H44.7244ZM52.9062 8.09091H53.1062V7.89091H52.9062V8.09091ZM52.9062 9.26278V9.46278H53.1062V9.26278H52.9062ZM49.4759 9.26278V9.06278H49.2759V9.26278H49.4759ZM49.4759 19V19.2H49.6759V19H49.4759ZM48.1548 19H47.9548V19.2H48.1548V19ZM48.1548 9.26278H48.3548V9.06278H48.1548V9.26278ZM44.9244 9.26278V8.09091H44.5244V9.26278H44.9244ZM44.7244 8.29091H52.9062V7.89091H44.7244V8.29091ZM52.7063 8.09091V9.26278H53.1062V8.09091H52.7063ZM52.9062 9.06278H49.4759V9.46278H52.9062V9.06278ZM49.2759 9.26278V19H49.6759V9.26278H49.2759ZM49.4759 18.8H48.1548V19.2H49.4759V18.8ZM48.3548 19V9.26278H47.9548V19H48.3548ZM48.1548 9.06278H44.7244V9.46278H48.1548V9.06278ZM54.6574 18.8988L54.5722 19.0798L54.5735 19.0803L54.6574 18.8988ZM53.6507 18.0412L53.4838 18.1514L53.4842 18.1521L53.6507 18.0412ZM53.5548 15.5376L53.7237 15.6448L53.7243 15.6438L53.5548 15.5376ZM54.2952 14.8452L54.3902 15.0211L54.2952 14.8452ZM55.3179 14.4723L55.3607 14.6677L55.3621 14.6674L55.3179 14.4723ZM56.4525 14.2699L56.427 14.0715L56.4266 14.0716L56.4525 14.2699ZM57.6617 14.1261L57.6822 14.325L57.6842 14.3248L57.6617 14.1261ZM58.3435 13.9503L58.2456 13.7758L58.2438 13.7769L58.3435 13.9503ZM58.1304 12.2564L57.9873 12.3961L57.9881 12.3969L58.1304 12.2564ZM55.4244 12.2138L55.5466 12.3722L55.4244 12.2138ZM54.7053 13.0554L54.6381 13.2437L54.8099 13.3051L54.8867 13.1396L54.7053 13.0554ZM53.5122 12.6293L53.3283 12.5505L53.2445 12.746L53.4449 12.8176L53.5122 12.6293ZM54.3644 11.468L54.4874 11.6257L54.4877 11.6256L54.3644 11.468ZM55.5363 10.8821L55.5867 11.0756L55.5878 11.0753L55.5363 10.8821ZM57.699 10.8075L57.6621 11.0041L57.6644 11.0045L57.699 10.8075ZM58.695 11.1857L58.5921 11.3572L58.593 11.3577L58.695 11.1857ZM59.4994 12.054L59.3242 12.1504L59.4994 12.054ZM59.819 19V19.2H60.019V19H59.819ZM58.5619 19H58.3619V19.2H58.5619V19ZM58.5619 17.892H58.7619V17.692H58.5619V17.892ZM58.498 17.892V17.692H58.3721L58.3177 17.8055L58.498 17.892ZM58.0718 18.462L58.2145 18.6022L58.0718 18.462ZM57.2781 18.9787L57.1991 18.795L57.2781 18.9787ZM57.5178 17.7695L57.4192 17.5956L57.4184 17.596L57.5178 17.7695ZM58.2955 17.0131L58.1221 16.9135L58.1213 16.915L58.2955 17.0131ZM58.5619 14.8878H58.7619V14.3354L58.4082 14.7597L58.5619 14.8878ZM58.2103 15.0636L58.2642 15.2562L58.2667 15.2554L58.2103 15.0636ZM57.5924 15.1967L57.6228 15.3944L57.6253 15.394L57.5924 15.1967ZM56.9159 15.2926L56.9387 15.4913L56.9415 15.491L56.9159 15.2926ZM56.3886 15.3565L56.4145 15.5549L56.4147 15.5548L56.3886 15.3565ZM55.4724 15.5643L55.5349 15.7543L55.5363 15.7538L55.4724 15.5643ZM54.7906 15.9851L54.6437 15.8493L54.6436 15.8494L54.7906 15.9851ZM55.0196 17.7322L54.9058 17.8967L54.9078 17.8981L55.0196 17.7322ZM56.069 18.9918C55.5762 18.9918 55.1347 18.8991 54.7413 18.7172L54.5735 19.0803C55.0252 19.2891 55.5249 19.3918 56.069 19.3918V18.9918ZM54.7426 18.7178C54.3515 18.5338 54.0446 18.2715 53.8171 17.9303L53.4842 18.1521C53.7539 18.5566 54.1182 18.8661 54.5722 19.0798L54.7426 18.7178ZM53.8175 17.931C53.5942 17.5928 53.4778 17.1783 53.4778 16.6776H53.0778C53.0778 17.2422 53.2099 17.7367 53.4838 18.1514L53.8175 17.931ZM53.4778 16.6776C53.4778 16.2335 53.5654 15.8943 53.7237 15.6448L53.3859 15.4305C53.1748 15.7633 53.0778 16.1841 53.0778 16.6776H53.4778ZM53.7243 15.6438C53.8904 15.3787 54.1114 15.1718 54.3902 15.0211L54.2001 14.6692C53.8611 14.8524 53.5885 15.1071 53.3853 15.4315L53.7243 15.6438ZM54.3902 15.0211C54.6814 14.8638 55.0045 14.7457 55.3607 14.6677L55.2751 14.2769C54.8856 14.3623 54.5269 14.4927 54.2001 14.6692L54.3902 15.0211ZM55.3621 14.6674C55.7325 14.5835 56.1046 14.5171 56.4785 14.4682L56.4266 14.0716C56.0404 14.1221 55.6561 14.1907 55.2738 14.2772L55.3621 14.6674ZM56.478 14.4683C56.9744 14.4044 57.3756 14.3567 57.6822 14.325L57.6411 13.9271C57.3298 13.9593 56.9249 14.0075 56.427 14.0715L56.478 14.4683ZM57.6842 14.3248C58.0035 14.2885 58.2645 14.2264 58.4432 14.1237L58.2438 13.7769C58.1384 13.8375 57.9448 13.8926 57.6391 13.9273L57.6842 14.3248ZM58.4413 14.1247C58.6644 13.9996 58.7619 13.7807 58.7619 13.5241H58.3619C58.3619 13.6724 58.3137 13.7377 58.2456 13.7759L58.4413 14.1247ZM58.7619 13.5241V13.4815H58.3619V13.5241H58.7619ZM58.7619 13.4815C58.7619 12.919 58.607 12.4543 58.2727 12.1158L57.9881 12.3969C58.2291 12.6409 58.3619 12.993 58.3619 13.4815H58.7619ZM58.2736 12.1167C57.9383 11.7731 57.4457 11.6196 56.836 11.6196V12.0196C57.384 12.0196 57.7543 12.1573 57.9873 12.3961L58.2736 12.1167ZM56.836 11.6196C56.2088 11.6196 55.6897 11.7568 55.3023 12.0554L55.5466 12.3722C55.841 12.1452 56.263 12.0196 56.836 12.0196V11.6196ZM55.3023 12.0554C54.9436 12.3319 54.6795 12.6362 54.5239 12.9712L54.8867 13.1396C55.0082 12.878 55.2235 12.6212 55.5466 12.3722L55.3023 12.0554ZM54.7726 12.867L53.5794 12.4409L53.4449 12.8176L54.6381 13.2437L54.7726 12.867ZM53.696 12.708C53.8984 12.2357 54.1638 11.8782 54.4874 11.6257L54.2414 11.3103C53.8548 11.6119 53.552 12.0285 53.3283 12.5505L53.696 12.708ZM54.4877 11.6256C54.8257 11.3612 55.1917 11.1785 55.5867 11.0756L55.4859 10.6886C55.0357 10.8058 54.6205 11.0138 54.2412 11.3105L54.4877 11.6256ZM55.5878 11.0753C55.9984 10.9659 56.4001 10.9116 56.7934 10.9116V10.5116C56.3629 10.5116 55.9265 10.5711 55.4848 10.6889L55.5878 11.0753ZM56.7934 10.9116C57.0406 10.9116 57.3297 10.9418 57.6621 11.0041L57.7358 10.611C57.3864 10.5454 57.0718 10.5116 56.7934 10.5116V10.9116ZM57.6644 11.0045C57.9832 11.0604 58.2922 11.1772 58.5921 11.3572L58.7979 11.0142C58.4587 10.8107 58.1037 10.6754 57.7335 10.6105L57.6644 11.0045ZM58.593 11.3577C58.8804 11.5283 59.1253 11.7891 59.3242 12.1504L59.6746 11.9575C59.4474 11.5447 59.156 11.2267 58.7971 11.0137L58.593 11.3577ZM59.3242 12.1504C59.5151 12.4973 59.619 12.9785 59.619 13.6094H60.019C60.019 12.9405 59.9098 12.3848 59.6746 11.9575L59.3242 12.1504ZM59.619 13.6094V19H60.019V13.6094H59.619ZM59.819 18.8H58.5619V19.2H59.819V18.8ZM58.7619 19V17.892H58.3619V19H58.7619ZM58.5619 17.692H58.498V18.092H58.5619V17.692ZM58.3177 17.8055C58.2451 17.9566 58.1188 18.1288 57.9292 18.3218L58.2145 18.6022C58.4226 18.3904 58.5803 18.1826 58.6783 17.9786L58.3177 17.8055ZM57.9292 18.3218C57.7526 18.5015 57.5117 18.6605 57.1991 18.795L57.3572 19.1624C57.7051 19.0128 57.9933 18.8273 58.2145 18.6022L57.9292 18.3218ZM57.1991 18.795C56.9005 18.9234 56.526 18.9918 56.069 18.9918V19.3918C56.5637 19.3918 56.9953 19.3181 57.3572 19.1624L57.1991 18.795ZM56.2607 18.2625C56.7837 18.2625 57.2391 18.1597 57.6173 17.9431L57.4184 17.596C57.1148 17.7699 56.7321 17.8625 56.2607 17.8625V18.2625ZM57.6165 17.9435C57.9888 17.7324 58.2759 17.4555 58.4698 17.1113L58.1213 16.915C57.9671 17.1887 57.7358 17.416 57.4192 17.5956L57.6165 17.9435ZM58.4689 17.1128C58.6631 16.775 58.7619 16.4158 58.7619 16.0384H58.3619C58.3619 16.3427 58.2831 16.6334 58.1221 16.9135L58.4689 17.1128ZM58.7619 16.0384V14.8878H58.3619V16.0384H58.7619ZM58.4082 14.7597C58.4083 14.7597 58.4073 14.7609 58.4048 14.7631C58.4023 14.7654 58.3986 14.7685 58.3932 14.7723C58.3824 14.7801 58.3666 14.7898 58.3446 14.8008C58.3001 14.823 58.2376 14.8471 58.1539 14.8717L58.2667 15.2554C58.3642 15.2268 58.4508 15.1949 58.5235 15.1586C58.5941 15.1232 58.664 15.0776 58.7155 15.0158L58.4082 14.7597ZM58.1564 14.871C57.9874 14.9183 57.7887 14.9613 57.5595 14.9995L57.6253 15.394C57.8649 15.3541 58.0781 15.3083 58.2642 15.2562L58.1564 14.871ZM57.562 14.9991C57.3327 15.0343 57.1088 15.0661 56.8903 15.0943L56.9415 15.491C57.1634 15.4623 57.3905 15.4302 57.6228 15.3944L57.562 14.9991ZM56.8931 15.0939C56.676 15.1188 56.499 15.1403 56.3625 15.1582L56.4147 15.5548C56.5481 15.5373 56.7226 15.5161 56.9387 15.4913L56.8931 15.0939ZM56.3627 15.1582C56.0243 15.2024 55.706 15.2743 55.4084 15.3748L55.5363 15.7538C55.8069 15.6625 56.0994 15.5959 56.4145 15.5549L56.3627 15.1582ZM55.4099 15.3743C55.102 15.4756 54.8441 15.6326 54.6437 15.8493L54.9374 16.1209C55.0851 15.9612 55.2817 15.8376 55.5349 15.7543L55.4099 15.3743ZM54.6436 15.8494C54.4305 16.0803 54.3349 16.3858 54.3349 16.7415H54.7349C54.7349 16.458 54.8097 16.2592 54.9375 16.1207L54.6436 15.8494ZM54.3349 16.7415C54.3349 17.2354 54.522 17.631 54.9058 17.8967L55.1335 17.5678C54.8709 17.386 54.7349 17.1212 54.7349 16.7415H54.3349ZM54.9078 17.8981C55.2755 18.1459 55.731 18.2625 56.2607 18.2625V17.8625C55.7891 17.8625 55.4171 17.759 55.1314 17.5664L54.9078 17.8981ZM62.2839 19H62.0839V19.2H62.2839V19ZM62.2839 8.09091V7.89091H62.0839V8.09091H62.2839ZM63.541 8.09091H63.741V7.89091H63.541V8.09091ZM63.541 12.1179H63.341V12.3179H63.541V12.1179ZM63.6476 12.1179V12.3179H63.7561L63.8152 12.2269L63.6476 12.1179ZM64.0311 11.5746L63.8708 11.455L63.8705 11.4554L64.0311 11.5746ZM64.7449 10.978L64.843 11.1522L64.8437 11.1519L64.7449 10.978ZM67.8343 11.2283L67.944 11.0611L67.8343 11.2283ZM69.0648 17.1836L69.2461 17.2681L69.2463 17.2677L69.0648 17.1836ZM67.8397 18.6538L67.9498 18.8207L67.9506 18.8202L67.8397 18.6538ZM64.7715 18.9094L64.6735 19.0838L64.675 19.0846L64.7715 18.9094ZM64.0417 18.3075L63.8817 18.4275L63.8826 18.4287L64.0417 18.3075ZM63.6476 17.7429L63.8176 17.6376L63.759 17.5429H63.6476V17.7429ZM63.4984 17.7429V17.5429H63.2984V17.7429H63.4984ZM63.4984 19V19.2H63.6984V19H63.4984ZM63.7914 16.5444L63.6046 16.616L63.6048 16.6165L63.7914 16.5444ZM64.5851 17.647L64.4635 17.8058L64.4645 17.8066L64.5851 17.647ZM67.1792 17.6257L67.3029 17.7828L67.3031 17.7826L67.1792 17.6257ZM67.9782 16.4964L67.7912 16.4253L67.791 16.4261L67.9782 16.4964ZM67.9835 13.3537L67.7962 13.4238L67.7968 13.4255L67.9835 13.3537ZM67.1898 12.2511L67.067 12.4089L67.0688 12.4103L67.1898 12.2511ZM64.5744 12.2298L64.6928 12.3909L64.6939 12.3902L64.5744 12.2298ZM63.786 13.3058L63.9725 13.378L63.9727 13.3775L63.786 13.3058ZM62.4839 19V8.09091H62.0839V19H62.4839ZM62.2839 8.29091H63.541V7.89091H62.2839V8.29091ZM63.341 8.09091V12.1179H63.741V8.09091H63.341ZM63.541 12.3179H63.6476V11.9179H63.541V12.3179ZM63.8152 12.2269C63.9044 12.0898 64.0295 11.9123 64.1917 11.6937L63.8705 11.4554C63.7059 11.6771 63.5754 11.8619 63.4799 12.0089L63.8152 12.2269ZM64.1914 11.6942C64.3377 11.498 64.552 11.3161 64.843 11.1522L64.6467 10.8037C64.3198 10.9878 64.0582 11.2037 63.8708 11.455L64.1914 11.6942ZM64.8437 11.1519C65.1149 10.9977 65.4991 10.9116 66.0126 10.9116V10.5116C65.4608 10.5116 64.9998 10.6031 64.646 10.8041L64.8437 11.1519ZM66.0126 10.9116C66.6665 10.9116 67.2348 11.0745 67.7247 11.3956L67.944 11.0611C67.3827 10.6932 66.7366 10.5116 66.0126 10.5116V10.9116ZM67.7247 11.3956C68.2158 11.7175 68.6027 12.1755 68.8835 12.7777L69.2461 12.6087C68.9374 11.9467 68.504 11.4281 67.944 11.0611L67.7247 11.3956ZM68.8835 12.7777C69.1634 13.3779 69.3069 14.0936 69.3069 14.9304H69.7069C69.7069 14.0484 69.5557 13.2726 69.2461 12.6087L68.8835 12.7777ZM69.3069 14.9304C69.3069 15.7745 69.1633 16.4956 68.8834 17.0995L69.2463 17.2677C69.5558 16.6002 69.7069 15.8192 69.7069 14.9304H69.3069ZM68.8835 17.0991C68.6025 17.7018 68.2169 18.1619 67.7287 18.4874L67.9506 18.8202C68.5065 18.4496 68.9376 17.9296 69.2461 17.2681L68.8835 17.0991ZM67.7295 18.4868C67.2431 18.8078 66.6803 18.9705 66.0339 18.9705V19.3705C66.7512 19.3705 67.3922 19.1887 67.9498 18.8207L67.7295 18.4868ZM66.0339 18.9705C65.5277 18.9705 65.144 18.8862 64.8679 18.7342L64.675 19.0846C65.0311 19.2807 65.489 19.3705 66.0339 19.3705V18.9705ZM64.8694 18.7351C64.5706 18.5672 64.3507 18.383 64.2008 18.1863L63.8826 18.4287C64.0737 18.6795 64.3403 18.8966 64.6735 19.0838L64.8694 18.7351ZM64.2017 18.1875C64.0329 17.9625 63.9055 17.7796 63.8176 17.6376L63.4775 17.8482C63.5743 18.0045 63.7096 18.198 63.8817 18.4275L64.2017 18.1875ZM63.6476 17.5429H63.4984V17.9429H63.6476V17.5429ZM63.2984 17.7429V19H63.6984V17.7429H63.2984ZM63.4984 18.8H62.2839V19.2H63.4984V18.8ZM63.3197 14.9091C63.3197 15.5462 63.4131 16.1164 63.6046 16.616L63.9781 16.4728C63.8075 16.0278 63.7197 15.5078 63.7197 14.9091H63.3197ZM63.6048 16.6165C63.7972 17.1144 64.0822 17.514 64.4635 17.8058L64.7066 17.4882C64.3919 17.2474 64.1478 16.9119 63.9779 16.4723L63.6048 16.6165ZM64.4645 17.8066C64.8525 18.0996 65.3228 18.2412 65.8635 18.2412V17.8412C65.3956 17.8412 65.0136 17.72 64.7056 17.4874L64.4645 17.8066ZM65.8635 18.2412C66.4258 18.2412 66.9102 18.0922 67.3029 17.7828L67.0554 17.4686C66.745 17.7132 66.3523 17.8412 65.8635 17.8412V18.2412ZM67.3031 17.7826C67.69 17.477 67.9765 17.0692 68.1654 16.5668L67.791 16.4261C67.6247 16.8683 67.3785 17.2133 67.0552 17.4688L67.3031 17.7826ZM68.1651 16.5676C68.356 16.066 68.4498 15.5123 68.4498 14.9091H68.0498C68.0498 15.4706 67.9626 15.9752 67.7912 16.4253L68.1651 16.5676ZM68.4498 14.9091C68.4498 14.3132 68.3578 13.7699 68.1702 13.2819L67.7968 13.4255C67.9643 13.8608 68.0498 14.3544 68.0498 14.9091H68.4498ZM68.1708 13.2836C67.9851 12.7872 67.6994 12.3871 67.3108 12.0918L67.0688 12.4103C67.3905 12.6548 67.6338 12.9898 67.7962 13.4238L68.1708 13.2836ZM67.3126 12.0932C66.9194 11.7874 66.4316 11.6409 65.8635 11.6409V12.0409C66.3607 12.0409 66.7571 12.1679 67.067 12.4089L67.3126 12.0932ZM65.8635 11.6409C65.317 11.6409 64.8433 11.78 64.4549 12.0694L64.6939 12.3902C65.0015 12.161 65.3872 12.0409 65.8635 12.0409V11.6409ZM64.456 12.0686C64.0728 12.3501 63.7886 12.7419 63.5994 13.234L63.9727 13.3775C64.1386 12.9463 64.3799 12.6208 64.6928 12.3909L64.456 12.0686ZM63.5996 13.2335C63.4112 13.7195 63.3197 14.2794 63.3197 14.9091H63.7197C63.7197 14.3172 63.8058 13.8082 63.9725 13.378L63.5996 13.2335ZM72.687 8.09091H72.887V7.89091H72.687V8.09091ZM72.687 19V19.2H72.887V19H72.687ZM71.4299 19H71.2299V19.2H71.4299V19ZM71.4299 8.09091V7.89091H71.2299V8.09091H71.4299ZM72.487 8.09091V19H72.887V8.09091H72.487ZM72.687 18.8H71.4299V19.2H72.687V18.8ZM71.6299 19V8.09091H71.2299V19H71.6299ZM71.4299 8.29091H72.687V7.89091H71.4299V8.29091ZM76.3797 18.6484L76.2745 18.8185L76.2757 18.8193L76.3797 18.6484ZM75.064 17.1783L74.8839 17.2653L74.8845 17.2665L75.064 17.1783ZM75.064 12.7571L74.8838 12.6705L74.8835 12.6709L75.064 12.7571ZM76.3531 11.255L76.4623 11.4225L76.4625 11.4224L76.3531 11.255ZM79.5544 10.9247L79.6191 10.7355L79.5544 10.9247ZM80.689 11.6172L80.5522 11.7631L80.553 11.7639L80.689 11.6172ZM81.504 12.8743L81.6905 12.802V12.802L81.504 12.8743ZM81.8076 15.3352V15.5352H82.0076V15.3352H81.8076ZM75.5008 15.3352H75.3008V15.5352H75.5008V15.3352ZM75.5008 14.2486V14.0486H75.3008V14.2486H75.5008ZM80.5292 14.2486V14.4486H80.7292V14.2486H80.5292ZM80.2522 13.0128L80.0733 13.1022L80.074 13.1036L80.2522 13.0128ZM79.4745 12.1552L79.3682 12.3246L79.369 12.3251L79.4745 12.1552ZM76.9923 12.2138L77.1043 12.3794L77.1047 12.3792L76.9923 12.2138ZM76.156 13.1726L75.9768 13.0838L76.156 13.1726ZM76.1826 16.7362L76.0034 16.825L76.0043 16.8268L76.1826 16.7362ZM77.0828 17.7109L76.9821 17.8837L76.9833 17.8844L77.0828 17.7109ZM79.3147 17.9027L79.3802 18.0917L79.3817 18.0912L79.3147 17.9027ZM80.0125 17.4766L80.1513 17.6206L80.1526 17.6193L80.0125 17.4766ZM80.4653 16.7628L80.5193 16.5702L80.3425 16.5206L80.278 16.6926L80.4653 16.7628ZM81.6798 17.1037L81.8708 17.163L81.9317 16.9667L81.7338 16.9111L81.6798 17.1037ZM81.0352 18.1903L81.1783 18.3301L81.1791 18.3293L81.0352 18.1903ZM79.9166 18.9148L79.9883 19.1015L79.9896 19.101L79.9166 18.9148ZM78.4198 18.9705C77.6616 18.9705 77.0189 18.8034 76.4837 18.4776L76.2757 18.8193C76.884 19.1895 77.6014 19.3705 78.4198 19.3705V18.9705ZM76.4849 18.4784C75.9503 18.1475 75.5367 17.6866 75.2435 17.09L74.8845 17.2665C75.2092 17.9271 75.6728 18.4462 76.2745 18.8185L76.4849 18.4784ZM75.2441 17.0913C74.9541 16.491 74.8059 15.7867 74.8059 14.973H74.4059C74.4059 15.8354 74.5631 16.6013 74.8839 17.2653L75.2441 17.0913ZM74.8059 14.973C74.8059 14.1594 74.9541 13.4511 75.2445 12.8433L74.8835 12.6709C74.5631 13.3415 74.4059 14.1105 74.4059 14.973H74.8059ZM75.2443 12.8437C75.5388 12.231 75.9451 11.7595 76.4623 11.4225L76.2439 11.0874C75.6602 11.4677 75.2071 11.9977 74.8838 12.6705L75.2443 12.8437ZM76.4625 11.4224C76.9803 11.0838 77.5876 10.9116 78.292 10.9116V10.5116C77.5191 10.5116 76.8338 10.7017 76.2436 11.0876L76.4625 11.4224ZM78.292 10.9116C78.6954 10.9116 79.0944 10.9788 79.4897 11.114L79.6191 10.7355C79.1835 10.5865 78.7408 10.5116 78.292 10.5116V10.9116ZM79.4897 11.114C79.8767 11.2463 80.2306 11.4616 80.5522 11.7631L80.8258 11.4713C80.4656 11.1336 80.0631 10.8873 79.6191 10.7355L79.4897 11.114ZM80.553 11.7639C80.8676 12.0555 81.1239 12.4472 81.3175 12.9466L81.6905 12.802C81.4793 12.2574 81.1922 11.811 80.825 11.4705L80.553 11.7639ZM81.3175 12.9466C81.5084 13.4388 81.6076 14.0554 81.6076 14.8026H82.0076C82.0076 14.0227 81.9044 13.3538 81.6905 12.802L81.3175 12.9466ZM81.6076 14.8026V15.3352H82.0076V14.8026H81.6076ZM81.8076 15.1352H75.5008V15.5352H81.8076V15.1352ZM75.7008 15.3352V14.2486H75.3008V15.3352H75.7008ZM75.5008 14.4486H80.5292V14.0486H75.5008V14.4486ZM80.7292 14.2486C80.7292 13.7597 80.6312 13.3159 80.4304 12.9219L80.074 13.1036C80.2425 13.4341 80.3292 13.8142 80.3292 14.2486H80.7292ZM80.4311 12.9233C80.2338 12.5287 79.9495 12.2147 79.58 11.9853L79.369 12.3251C79.6743 12.5147 79.9084 12.7724 80.0733 13.1022L80.4311 12.9233ZM79.5808 11.9858C79.2105 11.7534 78.7783 11.6409 78.292 11.6409V12.0409C78.7148 12.0409 79.0709 12.138 79.3682 12.3246L79.5808 11.9858ZM78.292 11.6409C77.7567 11.6409 77.2831 11.7743 76.8799 12.0484L77.1047 12.3792C77.433 12.156 77.8259 12.0409 78.292 12.0409V11.6409ZM76.8802 12.0481C76.4892 12.3127 76.1874 12.6588 75.9768 13.0838L76.3352 13.2614C76.5152 12.898 76.771 12.605 77.1043 12.3794L76.8802 12.0481ZM75.9768 13.0838C75.7674 13.5063 75.663 13.9593 75.663 14.4403H76.063C76.063 14.0193 76.1539 13.6272 76.3352 13.2614L75.9768 13.0838ZM75.663 14.4403V15.1648H76.063V14.4403H75.663ZM75.663 15.1648C75.663 15.8049 75.7733 16.3609 76.0034 16.825L76.3618 16.6473C76.1658 16.252 76.063 15.7604 76.063 15.1648H75.663ZM76.0043 16.8268C76.237 17.2844 76.5628 17.6391 76.9821 17.8837L77.1836 17.5382C76.8358 17.3353 76.5615 17.0401 76.3609 16.6455L76.0043 16.8268ZM76.9833 17.8844C77.4013 18.1244 77.8823 18.2412 78.4198 18.2412V17.8412C77.9417 17.8412 77.5314 17.7378 77.1824 17.5375L76.9833 17.8844ZM78.4198 18.2412C78.7686 18.2412 79.0896 18.1924 79.3802 18.0917L79.2492 17.7137C79.0072 17.7976 78.7315 17.8412 78.4198 17.8412V18.2412ZM79.3817 18.0912C79.6769 17.9863 79.9343 17.8296 80.1513 17.6206L79.8737 17.3325C79.7001 17.4999 79.4924 17.6273 79.2478 17.7142L79.3817 18.0912ZM80.1526 17.6193C80.3709 17.405 80.5369 17.1414 80.6526 16.833L80.278 16.6926C80.1806 16.9523 80.0447 17.1646 79.8724 17.3338L80.1526 17.6193ZM80.4112 16.9553L81.6257 17.2963L81.7338 16.9111L80.5193 16.5702L80.4112 16.9553ZM81.4888 17.0444C81.3703 17.4262 81.1717 17.7612 80.8914 18.0514L81.1791 18.3293C81.5025 17.9945 81.7336 17.605 81.8708 17.163L81.4888 17.0444ZM80.8922 18.0506C80.6121 18.3372 80.2639 18.5638 79.8436 18.7286L79.9896 19.101C80.4571 18.9177 80.8547 18.6613 81.1783 18.3301L80.8922 18.0506ZM79.8449 18.7281C79.4274 18.8884 78.9533 18.9705 78.4198 18.9705V19.3705C78.9943 19.3705 79.5181 19.282 79.9883 19.1015L79.8449 18.7281ZM83.7199 19H83.5199V19.2H83.7199V19ZM83.7199 10.8182V10.6182H83.5199V10.8182H83.7199ZM84.9344 10.8182H85.1344V10.6182H84.9344V10.8182ZM84.9344 12.054H84.7344V12.254H84.9344V12.054ZM85.0196 12.054V12.254H85.1591L85.2073 12.1231L85.0196 12.054ZM85.8293 11.0685L85.7208 10.9005L85.8293 11.0685ZM87.8108 10.7116H88.0108V10.5307L87.8307 10.5126L87.8108 10.7116ZM87.8108 11.9901L87.7623 12.1841L88.0108 12.2462V11.9901H87.8108ZM87.5178 11.9421L87.485 12.1395L87.4902 12.1402L87.5178 11.9421ZM85.9784 12.1552L86.0719 12.332L86.0726 12.3316L85.9784 12.1552ZM85.2433 12.837L85.0735 12.7314L85.0732 12.7319L85.2433 12.837ZM84.977 19V19.2H85.177V19H84.977ZM83.9199 19V10.8182H83.5199V19H83.9199ZM83.7199 11.0182H84.9344V10.6182H83.7199V11.0182ZM84.7344 10.8182V12.054H85.1344V10.8182H84.7344ZM84.9344 12.254H85.0196V11.854H84.9344V12.254ZM85.2073 12.1231C85.3403 11.7622 85.5805 11.4671 85.9377 11.2366L85.7208 10.9005C85.2968 11.1742 84.9973 11.5361 84.832 11.9848L85.2073 12.1231ZM85.9377 11.2366C86.2943 11.0065 86.6965 10.8903 87.1503 10.8903V10.4903C86.624 10.4903 86.1456 10.6263 85.7208 10.9005L85.9377 11.2366ZM87.1503 10.8903C87.2403 10.8903 87.3539 10.8921 87.4914 10.8956L87.5017 10.4957C87.3622 10.4922 87.245 10.4903 87.1503 10.4903V10.8903ZM87.4914 10.8956C87.6286 10.8991 87.7274 10.9043 87.7909 10.9107L87.8307 10.5126C87.7521 10.5048 87.6414 10.4993 87.5017 10.4957L87.4914 10.8956ZM87.6108 10.7116V11.9901H88.0108V10.7116H87.6108ZM87.8593 11.796C87.8043 11.7823 87.6952 11.7649 87.5455 11.744L87.4902 12.1402C87.6459 12.1619 87.7321 12.1765 87.7623 12.1841L87.8593 11.796ZM87.5507 11.7448C87.3897 11.718 87.2206 11.7048 87.0438 11.7048V12.1048C87.2008 12.1048 87.3477 12.1165 87.485 12.1394L87.5507 11.7448ZM87.0438 11.7048C86.6173 11.7048 86.2291 11.7946 85.8842 11.9788L86.0726 12.3316C86.3528 12.182 86.6748 12.1048 87.0438 12.1048V11.7048ZM85.8849 11.9784C85.5453 12.1579 85.2737 12.4095 85.0735 12.7314L85.4132 12.9426C85.5752 12.6821 85.7936 12.4791 86.0719 12.332L85.8849 11.9784ZM85.0732 12.7319C84.8743 13.0541 84.777 13.4196 84.777 13.8224H85.177C85.177 13.4867 85.2572 13.1952 85.4135 12.9421L85.0732 12.7319ZM84.777 13.8224V19H85.177V13.8224H84.777ZM84.977 18.8H83.7199V19.2H84.977V18.8ZM90.4316 18.6431L90.3244 18.812L90.3249 18.8123L90.4316 18.6431ZM89.1318 17.1676L88.9521 17.2554L88.9525 17.2562L89.1318 17.1676ZM89.1318 12.7198L88.9524 12.6316L88.952 12.6324L89.1318 12.7198ZM90.4316 11.239L90.3249 11.0698L90.3244 11.0701L90.4316 11.239ZM94.3147 11.239L94.2076 11.4079L94.208 11.4082L94.3147 11.239ZM95.6144 12.7198L95.4346 12.8072L95.435 12.8081L95.6144 12.7198ZM95.6144 17.1676L95.4351 17.079L95.4347 17.0798L95.6144 17.1676ZM94.3147 18.6431L94.208 18.4739L94.2076 18.4742L94.3147 18.6431ZM93.7607 17.6097L93.6364 17.4531L93.7607 17.6097ZM94.5651 16.4751L94.7526 16.5447L94.5651 16.4751ZM94.5651 13.4229L94.7527 13.3538L94.5651 13.4229ZM93.7607 12.2777L93.8861 12.1218L93.7607 12.2777ZM90.9909 12.2777L90.8655 12.1218L90.9909 12.2777ZM90.1865 13.4229L89.9989 13.3538L90.1865 13.4229ZM90.1865 16.4751L89.999 16.5447L90.1865 16.4751ZM90.9909 17.6097L91.1152 17.4531H91.1152L90.9909 17.6097ZM92.3758 18.9705C91.6702 18.9705 91.0601 18.803 90.5382 18.4739L90.3249 18.8123C90.9181 19.1864 91.6041 19.3705 92.3758 19.3705V18.9705ZM90.5387 18.4742C90.018 18.1438 89.6086 17.6808 89.3111 17.079L88.9525 17.2562C89.28 17.9186 89.7372 18.4393 90.3244 18.812L90.5387 18.4742ZM89.3115 17.0798C89.0184 16.48 88.8684 15.7725 88.8684 14.9517H88.4684C88.4684 15.8213 88.6274 16.591 88.9521 17.2554L89.3115 17.0798ZM88.8684 14.9517C88.8684 14.1236 89.0185 13.4106 89.3117 12.8072L88.952 12.6324C88.6273 13.3003 88.4684 14.0753 88.4684 14.9517H88.8684ZM89.3113 12.8081C89.6089 12.2027 90.0183 11.7381 90.5387 11.4079L90.3244 11.0701C89.7369 11.443 89.2797 11.9656 88.9524 12.6316L89.3113 12.8081ZM90.5382 11.4082C91.0601 11.0791 91.6702 10.9116 92.3758 10.9116V10.5116C91.6041 10.5116 90.9181 10.6958 90.3249 11.0698L90.5382 11.4082ZM92.3758 10.9116C93.0814 10.9116 93.6895 11.0791 94.2076 11.4079L94.4219 11.0701C93.832 10.6957 93.1475 10.5116 92.3758 10.5116V10.9116ZM94.208 11.4082C94.7317 11.7384 95.1407 12.2026 95.4346 12.8072L95.7943 12.6324C95.4703 11.9657 95.0128 11.4427 94.4214 11.0698L94.208 11.4082ZM95.435 12.8081C95.7315 13.4112 95.8832 14.1239 95.8832 14.9517H96.2832C96.2832 14.075 96.1224 13.2997 95.7939 12.6316L95.435 12.8081ZM95.8832 14.9517C95.8832 15.7722 95.7316 16.4794 95.4352 17.079L95.7937 17.2562C96.1223 16.5916 96.2832 15.8216 96.2832 14.9517H95.8832ZM95.4347 17.0798C95.141 17.6809 94.732 18.1435 94.208 18.4739L94.4214 18.8123C95.0125 18.4396 95.47 17.9186 95.7941 17.2554L95.4347 17.0798ZM94.2076 18.4742C93.6895 18.803 93.0814 18.9705 92.3758 18.9705V19.3705C93.1475 19.3705 93.832 19.1864 94.4219 18.812L94.2076 18.4742ZM92.3758 18.2412C92.9721 18.2412 93.4805 18.0877 93.8851 17.7664L93.6364 17.4531C93.3166 17.7071 92.9016 17.8412 92.3758 17.8412V18.2412ZM93.8851 17.7664C94.2782 17.4542 94.5669 17.0448 94.7526 16.5447L94.3776 16.4055C94.2152 16.8429 93.9677 17.19 93.6364 17.4531L93.8851 17.7664ZM94.7526 16.5447C94.9356 16.0517 95.0261 15.5201 95.0261 14.9517H94.6261C94.6261 15.477 94.5426 15.9611 94.3776 16.4055L94.7526 16.5447ZM95.0261 14.9517C95.0261 14.3833 94.9356 13.8501 94.7527 13.3538L94.3774 13.4921C94.5426 13.9404 94.6261 14.4264 94.6261 14.9517H95.0261ZM94.7527 13.3538C94.5673 12.8504 94.2789 12.4376 93.8861 12.1218L93.6354 12.4336C93.967 12.7002 94.2149 13.0509 94.3774 13.4921L94.7527 13.3538ZM93.8861 12.1218C93.4814 11.7965 92.9727 11.6409 92.3758 11.6409V12.0409C92.9011 12.0409 93.3157 12.1765 93.6354 12.4336L93.8861 12.1218ZM92.3758 11.6409C91.7789 11.6409 91.2702 11.7965 90.8655 12.1218L91.1162 12.4336C91.4359 12.1765 91.8505 12.0409 92.3758 12.0409V11.6409ZM90.8655 12.1218C90.4727 12.4376 90.1843 12.8504 89.9989 13.3538L90.3742 13.4921C90.5367 13.0509 90.7845 12.7002 91.1162 12.4336L90.8655 12.1218ZM89.9989 13.3538C89.816 13.8501 89.7255 14.3833 89.7255 14.9517H90.1255C90.1255 14.4264 90.209 13.9404 90.3742 13.4921L89.9989 13.3538ZM89.7255 14.9517C89.7255 15.5201 89.816 16.0517 89.999 16.5447L90.374 16.4055C90.209 15.9611 90.1255 15.477 90.1255 14.9517H89.7255ZM89.999 16.5447C90.1847 17.0448 90.4734 17.4542 90.8665 17.7664L91.1152 17.4531C90.7839 17.19 90.5364 16.8429 90.374 16.4055L89.999 16.5447ZM90.8665 17.7664C91.2711 18.0877 91.7795 18.2412 92.3758 18.2412V17.8412C91.85 17.8412 91.435 17.7071 91.1152 17.4531L90.8665 17.7664Z" fill="white" mask="url(#path-5-outside-1_126_550)"/>
<path d="M119 16L114 11H124L119 16Z" fill="white"/>
</svg>
